  0
SECTION
  2
HEADER
  9
$ACADVER
  1
AC1014
  9
$HANDSEED
  5
FFFF
  9
$MEASUREMENT
 70
     1
  0
ENDSEC
  0
SECTION
  2
TABLES
  0
TABLE
  2
VPORT
  5
8
330
0
100
AcDbSymbolTable
 70
     4
  0
VPORT
  5
2E
330
8
100
AcDbSymbolTableRecord
100
AcDbViewportTableRecord
  2
*ACTIVE
 70
     0
 10
0.0
 20
0.0
 11
1.0
 21
1.0
 12
210.0
 22
148.5
 13
0.0
 23
0.0
 14
10.0
 24
10.0
 15
10.0
 25
10.0
 16
0.0
 26
0.0
 36
1.0
 17
0.0
 27
0.0
 37
0.0
 40
341.0
 41
1.24
 42
50.0
 43
0.0
 44
0.0
 50
0.0
 51
0.0
 71
     0
 72
   100
 73
     1
 74
     3
 75
     0
 76
     0
 77
     0
 78
     0
  0
ENDTAB
  0
TABLE
  2
LTYPE
  5
5
330
0
100
AcDbSymbolTable
 70
     1
  0
LTYPE
  5
14
330
5
100
AcDbSymbolTableRecord
100
AcDbLinetypeTableRecord
  2
BYBLOCK
 70
     0
  3

 72
    65
 73
     0
 40
0.0
  0
LTYPE
  5
15
330
5
100
AcDbSymbolTableRecord
100
AcDbLinetypeTableRecord
  2
BYLAYER
 70
     0
  3

 72
    65
 73
     0
 40
0.0
  0
LTYPE
  5
16
330
5
100
AcDbSymbolTableRecord
100
AcDbLinetypeTableRecord
  2
CONTINUOUS
 70
     0
  3
Solid line
 72
    65
 73
     0
 40
0.0
  0
ENDTAB
  0
TABLE
  2
LAYER
  5
2
100
AcDbSymbolTable
 70
2
  0
LAYER
  5
50
100
AcDbSymbolTableRecord
100
AcDbLayerTableRecord
  2
0
 70
0
  6
CONTINUOUS
  0
LAYER
  5
51
100
AcDbSymbolTableRecord
100
AcDbLayerTableRecord
  2
clip
 70
0
  6
CONTINUOUS
  0
ENDTAB
  0
TABLE
  2
STYLE
  5
3
330
0
100
AcDbSymbolTable
 70
     1
  0
STYLE
  5
11
330
3
100
AcDbSymbolTableRecord
100
AcDbTextStyleTableRecord
  2
STANDARD
 70
     0
 40
0.0
 41
1.0
 50
0.0
 71
     0
 42
2.5
  3
txt
  4

  0
ENDTAB
  0
TABLE
  2
VIEW
  5
6
330
0
100
AcDbSymbolTable
 70
     0
  0
ENDTAB
  0
TABLE
  2
UCS
  5
7
330
0
100
AcDbSymbolTable
 70
     0
  0
ENDTAB
  0
TABLE
  2
APPID
  5
9
330
0
100
AcDbSymbolTable
 70
     2
  0
APPID
  5
12
330
9
100
AcDbSymbolTableRecord
100
AcDbRegAppTableRecord
  2
ACAD
 70
     0
  0
ENDTAB
  0
TABLE
  2
DIMSTYLE
  5
A
330
0
100
AcDbSymbolTable
 70
     1
  0
DIMSTYLE
105
27
330
A
100
AcDbSymbolTableRecord
100
AcDbDimStyleTableRecord
  2
ISO-25
 70
     0
  3

  4

  5

  6

  7

 40
1.0
 41
2.5
 42
0.625
 43
3.75
 44
1.25
 45
0.0
 46
0.0
 47
0.0
 48
0.0
140
2.5
141
2.5
142
0.0
143
0.03937007874016
144
1.0
145
0.0
146
1.0
147
0.625
 71
     0
 72
     0
 73
     0
 74
     0
 75
     0
 76
     0
 77
     1
 78
     8
170
     0
171
     3
172
     1
173
     0
174
     0
175
     0
176
     0
177
     0
178
     0
270
     2
271
     2
272
     2
273
     2
274
     3
340
11
275
     0
280
     0
281
     0
282
     0
283
     0
284
     8
285
     0
286
     0
287
     3
288
     0
  0
ENDTAB
  0
TABLE
  2
BLOCK_RECORD
  5
1
330
0
100
AcDbSymbolTable
 70
     1
  0
BLOCK_RECORD
  5
1F
330
1
100
AcDbSymbolTableRecord
100
AcDbBlockTableRecord
  2
*MODEL_SPACE
  0
BLOCK_RECORD
  5
1B
330
1
100
AcDbSymbolTableRecord
100
AcDbBlockTableRecord
  2
*PAPER_SPACE
  0
ENDTAB
  0
ENDSEC
  0
SECTION
  2
BLOCKS
  0
BLOCK
  5
20
330
1F
100
AcDbEntity
  8
0
100
AcDbBlockBegin
  2
*MODEL_SPACE
 70
     0
 10
0.0
 20
0.0
 30
0.0
  3
*MODEL_SPACE
  1

  0
ENDBLK
  5
21
330
1F
100
AcDbEntity
  8
0
100
AcDbBlockEnd
  0
BLOCK
  5
1C
330
1B
100
AcDbEntity
 67
     1
  8
0
100
AcDbBlockBegin
  2
*PAPER_SPACE
  1

  0
ENDBLK
  5
1D
330
1B
100
AcDbEntity
 67
     1
  8
0
100
AcDbBlockEnd
  0
ENDSEC
  0
SECTION
  2
ENTITIES
  0
LWPOLYLINE
  5
100
100
AcDbEntity
  8
clip
 62
5
100
AcDbPolyline
 90
54
 70
1
 10
5.009513
 20
69.395288
 30
0.0
 10
4.107760
 20
69.302787
 30
0.0
 10
3.232361
 20
69.049055
 30
0.0
 10
2.409672
 20
68.640295
 30
0.0
 10
1.666048
 20
68.083222
 30
0.0
 10
1.027844
 20
67.384558
 30
0.0
 10
0.521415
 20
66.551534
 30
0.0
 10
0.172599
 20
65.590353
 30
0.0
 10
0.008268
 20
64.507730
 30
0.0
 10
0.038757
 20
-0.059906
 30
0.0
 10
6.005835
 20
0.464102
 30
0.0
 10
11.570870
 20
2.040754
 30
0.0
 10
16.614490
 20
4.575991
 30
0.0
 10
21.016805
 20
7.976310
 30
0.0
 10
24.657410
 20
12.146594
 30
0.0
 10
27.416932
 20
16.992808
 30
0.0
 10
29.174964
 20
22.420391
 30
0.0
 10
29.812133
 20
28.335786
 30
0.0
 10
29.577006
 20
36.447430
 30
0.0
 10
27.261902
 20
39.077243
 30
0.0
 10
26.644367
 20
51.651669
 30
0.0
 10
28.885576
 20
50.491016
 30
0.0
 10
28.845267
 20
52.800952
 30
0.0
 10
28.718661
 20
55.205457
 30
0.0
 10
28.486116
 20
57.658020
 30
0.0
 10
28.128000
 20
60.113684
 30
0.0
 10
27.623119
 20
62.524906
 30
0.0
 10
26.951842
 20
64.846728
 30
0.0
 10
26.094015
 20
67.032641
 30
0.0
 10
25.029997
 20
69.036654
 30
0.0
 10
22.739697
 20
67.521501
 30
0.0
 10
21.028174
 20
65.909713
 30
0.0
 10
19.816361
 20
64.224028
 30
0.0
 10
19.023128
 20
62.487700
 30
0.0
 10
18.568893
 20
60.723466
 30
0.0
 10
18.373555
 20
58.954065
 30
0.0
 10
18.355985
 20
57.202751
 30
0.0
 10
18.437118
 20
55.492778
 30
0.0
 10
23.353097
 20
50.636227
 30
0.0
 10
23.930322
 20
35.129162
 30
0.0
 10
13.070520
 20
29.215817
 30
0.0
 10
12.157398
 20
29.126943
 30
0.0
 10
11.308354
 20
29.494873
 30
0.0
 10
10.660848
 20
30.184245
 30
0.0
 10
10.353373
 20
31.058613
 30
0.0
 10
10.202478
 20
64.121709
 30
0.0
 10
10.128581
 20
65.314400
 30
0.0
 10
9.830408
 20
66.367566
 30
0.0
 10
9.337931
 20
67.274486
 30
0.0
 10
8.681124
 20
68.028964
 30
0.0
 10
7.889958
 20
68.624793
 30
0.0
 10
6.994405
 20
69.055257
 30
0.0
 10
6.024438
 20
69.314157
 30
0.0
 10
5.009513
 20
69.395288
 30
0.0
  0
LWPOLYLINE
  5
101
100
AcDbEntity
  8
clip
 62
5
100
AcDbPolyline
 90
15
 70
1
 10
24.874967
 20
28.233472
 30
0.0
 10
26.023218
 20
27.817468
 30
0.0
 10
26.794746
 20
26.897114
 30
0.0
 10
27.023158
 20
25.751945
 30
0.0
 10
26.542050
 20
24.659004
 30
0.0
 10
6.688997
 20
7.375812
 30
0.0
 10
5.154724
 20
6.880248
 30
0.0
 10
3.879350
 20
7.673468
 30
0.0
 10
3.351733
 20
9.103885
 30
0.0
 10
4.061767
 20
10.518268
 30
0.0
 10
23.347412
 20
27.759577
 30
0.0
 10
23.741187
 20
27.991616
 30
0.0
 10
24.129277
 20
28.143540
 30
0.0
 10
24.508581
 20
28.222095
 30
0.0
 10
24.874967
 20
28.233472
 30
0.0
  0
ENDSEC
  0
SECTION
  2
OBJECTS
  0
DICTIONARY
  5
C
330
0
100
AcDbDictionary
  3
ACAD_GROUP
350
D
  3
ACAD_MLINESTYLE
350
17
  0
DICTIONARY
  5
D
330
C
100
AcDbDictionary
  0
DICTIONARY
  5
1A
330
C
100
AcDbDictionary
  0
DICTIONARY
  5
17
330
C
100
AcDbDictionary
  3
STANDARD
350
18
  0
DICTIONARY
  5
19
330
C
100
AcDbDictionary
  0
ENDSEC
  0
EOF
