999
"DXF R12 Output" (www.mydxf.blogspot.com)
 0 
SECTION
 2 
HEADER
 9 
$ACADVER
 1 
AC1009
 9 
$EXTMIN
 10 
 0 
 20 
 0 
 9 
$EXTMAX
 10 
 8.5 
 20 
 11 
 0 
ENDSEC
 0 
SECTION
 2 
ENTITIES
0
LINE
8
Layer 1
10
0.846666
20
317.647000
11
-0.846666
21
315.953000
0
LINE
8
Layer 1
10
0.000000
20
318.211000
11
0.000000
21
315.389000
0
LINE
8
Layer 1
10
2.257780
20
315.671000
11
1.128890
21
314.542110
0
LINE
8
Layer 1
10
1.693330
20
316.236000
11
0.564440
21
315.107110
0
LINE
8
Layer 1
10
1.128890
20
316.800000
11
0.000000
21
315.671110
0
LINE
8
Layer_1
10
-24.228200
20
17.772800
11
-24.389304
21
16.711480
0
LINE
8
Layer_1
10
-24.389304
20
16.711480
11
-24.444179
21
15.617870
0
LINE
8
Layer_1
10
-24.444179
20
15.617870
11
-24.444200
21
-43.049000
0
LINE
8
Layer_1
10
-24.444200
20
-43.049000
11
-24.389325
21
-44.142610
0
LINE
8
Layer_1
10
-24.389325
20
-44.142610
11
-24.228221
21
-45.203960
0
LINE
8
Layer_1
10
-24.228221
20
-45.203960
11
-23.966175
21
-46.227720
0
LINE
8
Layer_1
10
-23.966175
20
-46.227720
11
-23.608464
21
-47.208639
0
LINE
8
Layer_1
10
-23.608464
20
-47.208639
11
-23.160372
21
-48.141439
0
LINE
8
Layer_1
10
-23.160372
20
-48.141439
11
-22.627184
21
-49.020843
0
LINE
8
Layer_1
10
-22.627184
20
-49.020843
11
-22.014181
21
-49.841545
0
LINE
8
Layer_1
10
-22.014181
20
-49.841545
11
-21.326643
21
-50.598295
0
LINE
8
Layer_1
10
-21.326643
20
-50.598295
11
-20.569856
21
-51.285760
0
LINE
8
Layer_1
10
-20.569856
20
-51.285760
11
-19.749104
21
-51.898718
0
LINE
8
Layer_1
10
-19.749104
20
-51.898718
11
-18.869666
21
-52.431864
0
LINE
8
Layer_1
10
-18.869666
20
-52.431864
11
-17.936824
21
-52.879920
0
LINE
8
Layer_1
10
-17.936824
20
-52.879920
11
-16.955865
21
-53.237580
0
LINE
8
Layer_1
10
-16.955865
20
-53.237580
11
-15.932065
21
-53.499623
0
LINE
8
Layer_1
10
-15.932065
20
-53.499623
11
-14.870715
21
-53.660687
0
LINE
8
Layer_1
10
-14.870715
20
-53.660687
11
-13.777095
21
-53.715551
0
LINE
8
Layer_1
10
-13.777095
20
-53.715551
11
-13.177599
21
-53.699182
0
LINE
8
Layer_1
10
-13.177599
20
-53.699182
11
-12.587024
21
-53.650471
0
LINE
8
Layer_1
10
-12.587024
20
-53.650471
11
-12.006220
21
-53.570320
0
LINE
8
Layer_1
10
-12.006220
20
-53.570320
11
-11.436033
21
-53.459604
0
LINE
8
Layer_1
10
-11.436033
20
-53.459604
11
-10.877307
21
-53.319199
0
LINE
8
Layer_1
10
-10.877307
20
-53.319199
11
-10.330889
21
-53.149922
0
LINE
8
Layer_1
10
-10.330889
20
-53.149922
11
-9.797628
21
-52.952649
0
LINE
8
Layer_1
10
-9.797628
20
-52.952649
11
-9.278368
21
-52.728283
0
LINE
8
Layer_1
10
-9.278368
20
-52.728283
11
-8.773955
21
-52.477642
0
LINE
8
Layer_1
10
-8.773955
20
-52.477642
11
-8.285237
21
-52.201572
0
LINE
8
Layer_1
10
-8.285237
20
-52.201572
11
-7.813060
21
-51.900977
0
LINE
8
Layer_1
10
-7.813060
20
-51.900977
11
-7.358271
21
-51.576704
0
LINE
8
Layer_1
10
-7.358271
20
-51.576704
11
-6.921716
21
-51.229599
0
LINE
8
Layer_1
10
-6.921716
20
-51.229599
11
-6.504239
21
-50.860537
0
LINE
8
Layer_1
10
-6.504239
20
-50.860537
11
-6.106687
21
-50.470365
0
LINE
8
Layer_1
10
-6.106687
20
-50.470365
11
-5.729909
21
-50.059958
0
LINE
8
Layer_1
10
-5.729909
20
-50.059958
11
-5.728498
21
-50.059958
0
LINE
8
Layer_1
10
-5.728498
20
-50.059958
11
-5.727087
21
-50.062780
0
LINE
8
Layer_1
10
-5.727087
20
-50.062780
11
-5.725675
21
-50.062780
0
LINE
8
Layer_1
10
-5.725675
20
-50.062780
11
-5.724264
21
-50.065602
0
LINE
8
Layer_1
10
-5.724264
20
-50.065602
11
-5.722853
21
-50.065602
0
LINE
8
Layer_1
10
-5.722853
20
-50.065602
11
-5.721442
21
-50.068424
0
LINE
8
Layer_1
10
-5.721442
20
-50.068424
11
-5.720031
21
-50.068424
0
LINE
8
Layer_1
10
-5.720031
20
-50.068424
11
-5.718620
21
-50.071246
0
LINE
8
Layer_1
10
-5.718620
20
-50.071246
11
-5.717209
21
-50.074069
0
LINE
8
Layer_1
10
-5.717209
20
-50.074069
11
-5.715798
21
-50.074069
0
LINE
8
Layer_1
10
-5.715798
20
-50.074069
11
-5.714387
21
-50.076891
0
LINE
8
Layer_1
10
-5.714387
20
-50.076891
11
-5.712975
21
-50.076891
0
LINE
8
Layer_1
10
-5.712975
20
-50.076891
11
-5.711564
21
-50.079713
0
LINE
8
Layer_1
10
-5.711564
20
-50.079713
11
-5.710153
21
-50.079713
0
LINE
8
Layer_1
10
-5.710153
20
-50.079713
11
-5.708742
21
-50.082535
0
LINE
8
Layer_1
10
-5.708742
20
-50.082535
11
-5.707331
21
-50.082535
0
LINE
8
Layer_1
10
-5.707331
20
-50.082535
11
18.222569
21
-26.152635
0
LINE
8
Layer_1
10
18.222569
20
-26.152635
11
18.222600
21
-12.041600
0
LINE
8
Layer_1
10
18.222600
20
-12.041600
11
4.657800
21
-25.606400
0
LINE
8
Layer_1
10
4.657800
20
-25.606400
11
4.258721
21
-25.985650
0
LINE
8
Layer_1
10
4.258721
20
-25.985650
11
3.845311
21
-26.340629
0
LINE
8
Layer_1
10
3.845311
20
-26.340629
11
3.419221
21
-26.671365
0
LINE
8
Layer_1
10
3.419221
20
-26.671365
11
2.981006
21
-26.977294
0
LINE
8
Layer_1
10
2.981006
20
-26.977294
11
2.531765
21
-27.258952
0
LINE
8
Layer_1
10
2.531765
20
-27.258952
11
2.072051
21
-27.515830
0
LINE
8
Layer_1
10
2.072051
20
-27.515830
11
1.602967
21
-27.748437
0
LINE
8
Layer_1
10
1.602967
20
-27.748437
11
1.125617
21
-27.956802
0
LINE
8
Layer_1
10
1.125617
20
-27.956802
11
0.640548
21
-28.140359
0
LINE
8
Layer_1
10
0.640548
20
-28.140359
11
0.148864
21
-28.299109
0
LINE
8
Layer_1
10
0.148864
20
-28.299109
11
-0.348332
21
-28.434152
0
LINE
8
Layer_1
10
-0.348332
20
-28.434152
11
-0.849936
21
-28.544388
0
LINE
8
Layer_1
10
-0.849936
20
-28.544388
11
-1.355401
21
-28.629817
0
LINE
8
Layer_1
10
-1.355401
20
-28.629817
11
-1.863621
21
-28.691002
0
LINE
8
Layer_1
10
-1.863621
20
-28.691002
11
-2.373495
21
-28.727945
0
LINE
8
Layer_1
10
-2.373495
20
-28.727945
11
-2.885022
21
-28.740081
0
LINE
8
Layer_1
10
-2.885022
20
-28.740081
11
-3.395999
21
-28.727945
0
LINE
8
Layer_1
10
-3.395999
20
-28.727945
11
-3.905873
21
-28.691002
0
LINE
8
Layer_1
10
-3.905873
20
-28.691002
11
-4.414093
21
-28.629817
0
LINE
8
Layer_1
10
-4.414093
20
-28.629817
11
-4.919555
21
-28.544388
0
LINE
8
Layer_1
10
-4.919555
20
-28.544388
11
-5.421713
21
-28.434152
0
LINE
8
Layer_1
10
-5.421713
20
-28.434152
11
-5.918909
21
-28.299109
0
LINE
8
Layer_1
10
-5.918909
20
-28.299109
11
-6.410040
21
-28.140359
0
LINE
8
Layer_1
10
-6.410040
20
-28.140359
11
-6.895109
21
-27.956802
0
LINE
8
Layer_1
10
-6.895109
20
-27.956802
11
-7.372462
21
-27.748437
0
LINE
8
Layer_1
10
-7.372462
20
-27.748437
11
-7.841546
21
-27.515830
0
LINE
8
Layer_1
10
-7.841546
20
-27.515830
11
-8.301260
21
-27.258952
0
LINE
8
Layer_1
10
-8.301260
20
-27.258952
11
-8.751051
21
-26.977294
0
LINE
8
Layer_1
10
-8.751051
20
-26.977294
11
-9.189266
21
-26.671365
0
LINE
8
Layer_1
10
-9.189266
20
-26.671365
11
-9.615356
21
-26.340629
0
LINE
8
Layer_1
10
-9.615356
20
-26.340629
11
-10.028216
21
-25.985650
0
LINE
8
Layer_1
10
-10.028216
20
-25.985650
11
-10.427295
21
-25.606400
0
LINE
8
Layer_1
10
-10.427295
20
-25.606400
11
-10.806531
21
-25.207338
0
LINE
8
Layer_1
10
-10.806531
20
-25.207338
11
-11.162063
21
-24.793911
0
LINE
8
Layer_1
10
-11.162063
20
-24.793911
11
-11.492243
21
-24.367840
0
LINE
8
Layer_1
10
-11.492243
20
-24.367840
11
-11.798166
21
-23.929606
0
LINE
8
Layer_1
10
-11.798166
20
-23.929606
11
-12.079838
21
-23.480365
0
LINE
8
Layer_1
10
-12.079838
20
-23.480365
11
-12.337256
21
-23.020654
0
LINE
8
Layer_1
10
-12.337256
20
-23.020654
11
-12.569869
21
-22.551573
0
LINE
8
Layer_1
10
-12.569869
20
-22.551573
11
-12.777675
21
-22.073686
0
LINE
8
Layer_1
10
-12.777675
20
-22.073686
11
-12.961229
21
-21.589167
0
LINE
8
Layer_1
10
-12.961229
20
-21.589167
11
-13.120532
21
-21.097480
0
LINE
8
Layer_1
10
-13.120532
20
-21.097480
11
-13.255028
21
-20.600290
0
LINE
8
Layer_1
10
-13.255028
20
-20.600290
11
-13.365272
21
-20.098669
0
LINE
8
Layer_1
10
-13.365272
20
-20.098669
11
-13.451259
21
-19.593209
0
LINE
8
Layer_1
10
-13.451259
20
-19.593209
11
-13.512445
21
-19.084984
0
LINE
8
Layer_1
10
-13.512445
20
-19.084984
11
-13.548826
21
-18.574557
0
LINE
8
Layer_1
10
-13.548826
20
-18.574557
11
-13.560962
21
-18.063594
0
LINE
8
Layer_1
10
-13.560962
20
-18.063594
11
-13.548826
21
-17.552603
0
LINE
8
Layer_1
10
-13.548826
20
-17.552603
11
-13.512445
21
-17.042176
0
LINE
8
Layer_1
10
-13.512445
20
-17.042176
11
-13.451259
21
-16.533979
0
LINE
8
Layer_1
10
-13.451259
20
-16.533979
11
-13.365272
21
-16.028491
0
LINE
8
Layer_1
10
-13.365272
20
-16.028491
11
-13.255028
21
-15.526898
0
LINE
8
Layer_1
10
-13.255028
20
-15.526898
11
-13.120532
21
-15.029708
0
LINE
8
Layer_1
10
-13.120532
20
-15.029708
11
-12.961229
21
-14.538585
0
LINE
8
Layer_1
10
-12.961229
20
-14.538585
11
-12.777675
21
-14.053502
0
LINE
8
Layer_1
10
-12.777675
20
-14.053502
11
-12.569869
21
-13.576152
0
LINE
8
Layer_1
10
-12.569869
20
-13.576152
11
-12.337256
21
-13.107071
0
LINE
8
Layer_1
10
-12.337256
20
-13.107071
11
-12.079838
21
-12.647360
0
LINE
8
Layer_1
10
-12.079838
20
-12.647360
11
-11.798166
21
-12.197555
0
LINE
8
Layer_1
10
-11.798166
20
-12.197555
11
-11.492243
21
-11.759349
0
LINE
8
Layer_1
10
-11.492243
20
-11.759349
11
-11.162063
21
-11.333250
0
LINE
8
Layer_1
10
-11.162063
20
-11.333250
11
-10.806531
21
-10.920387
0
LINE
8
Layer_1
10
-10.806531
20
-10.920387
11
-10.427295
21
-10.521325
0
LINE
8
Layer_1
10
-10.427295
20
-10.521325
11
-3.109915
21
-3.203925
0
LINE
8
Layer_1
10
-3.109915
20
-3.203925
11
-3.109970
21
15.617800
0
LINE
8
Layer_1
10
-3.109970
20
15.617800
11
-3.164840
21
16.711410
0
LINE
8
Layer_1
10
-3.164840
20
16.711410
11
-3.325924
21
17.772730
0
LINE
8
Layer_1
10
-3.325924
20
17.772730
11
-3.587945
21
18.796520
0
LINE
8
Layer_1
10
-3.587945
20
18.796520
11
-3.945622
21
19.777439
0
LINE
8
Layer_1
10
-3.945622
20
19.777439
11
-4.393672
21
20.710239
0
LINE
8
Layer_1
10
-4.393672
20
20.710239
11
-4.926812
21
21.589615
0
LINE
8
Layer_1
10
-4.926812
20
21.589615
11
-5.539767
21
22.410317
0
LINE
8
Layer_1
10
-5.539767
20
22.410317
11
-6.227251
21
23.167067
0
LINE
8
Layer_1
10
-6.227251
20
23.167067
11
-6.983987
21
23.854560
0
LINE
8
Layer_1
10
-6.983987
20
23.854560
11
-7.804691
21
24.467518
0
LINE
8
Layer_1
10
-7.804691
20
24.467518
11
-8.684083
21
25.000635
0
LINE
8
Layer_1
10
-8.684083
20
25.000635
11
-9.616880
21
25.448691
0
LINE
8
Layer_1
10
-9.616880
20
25.448691
11
-10.597807
21
25.806379
0
LINE
8
Layer_1
10
-10.597807
20
25.806379
11
-11.621577
21
26.068394
0
LINE
8
Layer_1
10
-11.621577
20
26.068394
11
-12.682917
21
26.229486
0
LINE
8
Layer_1
10
-12.682917
20
26.229486
11
-13.776537
21
26.284350
0
LINE
8
Layer_1
10
-13.776537
20
26.284350
11
-13.776500
21
26.284400
0
LINE
8
Layer_1
10
-13.776500
20
26.284400
11
-13.776500
21
26.284400
0
LINE
8
Layer_1
10
-13.776500
20
26.284400
11
-13.776500
21
26.284400
0
LINE
8
Layer_1
10
-13.776500
20
26.284400
11
-13.776500
21
26.284400
0
LINE
8
Layer_1
10
-13.776500
20
26.284400
11
-13.776500
21
26.284400
0
LINE
8
Layer_1
10
-13.776500
20
26.284400
11
-13.776500
21
26.284400
0
LINE
8
Layer_1
10
-13.776500
20
26.284400
11
-13.776500
21
26.284400
0
LINE
8
Layer_1
10
-13.776500
20
26.284400
11
-13.776500
21
26.284400
0
LINE
8
Layer_1
10
-13.776500
20
26.284400
11
-13.776500
21
26.284400
0
LINE
8
Layer_1
10
-13.776500
20
26.284400
11
-13.776500
21
26.284400
0
LINE
8
Layer_1
10
-13.776500
20
26.284400
11
-13.776500
21
26.284400
0
LINE
8
Layer_1
10
-13.776500
20
26.284400
11
-13.776500
21
26.284400
0
LINE
8
Layer_1
10
-13.776500
20
26.284400
11
-13.776500
21
26.284400
0
LINE
8
Layer_1
10
-13.776500
20
26.284400
11
-13.776500
21
26.284400
0
LINE
8
Layer_1
10
-13.776500
20
26.284400
11
-13.777100
21
26.284400
0
LINE
8
Layer_1
10
-23.966200
20
18.796570
11
-24.228246
21
17.772780
0
LINE
8
Layer_1
10
-23.608489
20
19.777490
11
-23.966200
21
18.796571
0
LINE
8
Layer_1
10
-23.160397
20
20.710291
11
-23.608489
21
19.777491
0
LINE
8
Layer_1
10
-22.627209
20
21.589671
11
-23.160397
21
20.710295
0
LINE
8
Layer_1
10
-22.014207
20
22.410375
11
-22.627210
21
21.589673
0
LINE
8
Layer_1
10
-21.326670
20
23.167123
11
-22.014208
21
22.410373
0
LINE
8
Layer_1
10
-20.569888
20
23.854613
11
-21.326675
21
23.167120
0
LINE
8
Layer_1
10
-19.749135
20
24.467570
11
-20.569887
21
23.854612
0
LINE
8
Layer_1
10
-18.869697
20
25.000692
11
-19.749135
21
24.467575
0
LINE
8
Layer_1
10
-17.936855
20
25.448748
11
-18.869697
21
25.000692
0
LINE
8
Layer_1
10
-16.955897
20
25.806436
11
-17.936856
21
25.448748
0
LINE
8
Layer_1
10
-15.932096
20
26.068451
11
-16.955896
21
25.806436
0
LINE
8
Layer_1
10
-14.870746
20
26.229543
11
-15.932096
21
26.068451
0
LINE
8
Layer_1
10
-13.777116
20
26.284407
11
-14.870736
21
26.229543
0
LINE
8
Layer_1
10
-13.811200
20
18.820400
11
-13.273815
21
18.766270
0
LINE
8
Layer_1
10
-13.273815
20
18.766270
11
-12.773283
21
18.610935
0
LINE
8
Layer_1
10
-12.773283
20
18.610935
11
-12.320325
21
18.365120
0
LINE
8
Layer_1
10
-12.320325
20
18.365120
11
-11.925663
21
18.039549
0
LINE
8
Layer_1
10
-11.925663
20
18.039549
11
-11.600021
21
17.644974
0
LINE
8
Layer_1
10
-11.600021
20
17.644974
11
-11.354118
21
17.192064
0
LINE
8
Layer_1
10
-11.354118
20
17.192064
11
-11.198679
21
16.691543
0
LINE
8
Layer_1
10
-11.198679
20
16.691543
11
-11.144422
21
16.154192
0
LINE
8
Layer_1
10
-11.144422
20
16.154192
11
-11.198583
21
15.616728
0
LINE
8
Layer_1
10
-11.198583
20
15.616728
11
-11.353960
21
15.116123
0
LINE
8
Layer_1
10
-11.353960
20
15.116123
11
-11.599832
21
14.663128
0
LINE
8
Layer_1
10
-11.599832
20
14.663128
11
-11.925468
21
14.268441
0
LINE
8
Layer_1
10
-11.925468
20
14.268441
11
-12.320150
21
13.942813
0
LINE
8
Layer_1
10
-12.320150
20
13.942813
11
-12.773150
21
13.696941
0
LINE
8
Layer_1
10
-12.773150
20
13.696941
11
-13.273741
21
13.541550
0
LINE
8
Layer_1
10
-13.273741
20
13.541550
11
-13.811199
21
13.487391
0
LINE
8
Layer_1
10
-13.811199
20
13.487391
11
-14.348657
21
13.541550
0
LINE
8
Layer_1
10
-14.348657
20
13.541550
11
-14.849248
21
13.696941
0
LINE
8
Layer_1
10
-14.849248
20
13.696941
11
-15.302248
21
13.942813
0
LINE
8
Layer_1
10
-15.302248
20
13.942813
11
-15.696930
21
14.268441
0
LINE
8
Layer_1
10
-15.696930
20
14.268441
11
-16.022566
21
14.663128
0
LINE
8
Layer_1
10
-16.022566
20
14.663128
11
-16.268438
21
15.116123
0
LINE
8
Layer_1
10
-16.268438
20
15.116123
11
-16.423815
21
15.616728
0
LINE
8
Layer_1
10
-16.423815
20
15.616728
11
-16.477976
21
16.154192
0
LINE
8
Layer_1
10
-16.477976
20
16.154192
11
-16.423719
21
16.691543
0
LINE
8
Layer_1
10
-16.423719
20
16.691543
11
-16.268280
21
17.192064
0
LINE
8
Layer_1
10
-16.268280
20
17.192064
11
-16.022377
21
17.644974
0
LINE
8
Layer_1
10
-16.022377
20
17.644974
11
-15.696735
21
18.039549
0
LINE
8
Layer_1
10
-15.696735
20
18.039549
11
-15.302073
21
18.365120
0
LINE
8
Layer_1
10
-15.302073
20
18.365120
11
-14.849115
21
18.610935
0
LINE
8
Layer_1
10
-14.849115
20
18.610935
11
-14.348583
21
18.766270
0
LINE
8
Layer_1
10
-14.348583
20
18.766270
11
-13.811200
21
18.820400
0
LINE
8
Layer_1
10
-13.966700
20
-37.624000
11
-13.421444
21
-37.651658
0
LINE
8
Layer_1
10
-13.421444
20
-37.651658
11
-12.891942
21
-37.732486
0
LINE
8
Layer_1
10
-12.891942
20
-37.732486
11
-12.380869
21
-37.863917
0
LINE
8
Layer_1
10
-12.380869
20
-37.863917
11
-11.890909
21
-38.043269
0
LINE
8
Layer_1
10
-11.890909
20
-38.043269
11
-11.424743
21
-38.267833
0
LINE
8
Layer_1
10
-11.424743
20
-38.267833
11
-10.985047
21
-38.534984
0
LINE
8
Layer_1
10
-10.985047
20
-38.534984
11
-10.574501
21
-38.841985
0
LINE
8
Layer_1
10
-10.574501
20
-38.841985
11
-10.195790
21
-39.186183
0
LINE
8
Layer_1
10
-10.195790
20
-39.186183
11
-9.851592
21
-39.564897
0
LINE
8
Layer_1
10
-9.851592
20
-39.564897
11
-9.544588
21
-39.975445
0
LINE
8
Layer_1
10
-9.544588
20
-39.975445
11
-9.277454
21
-40.415119
0
LINE
8
Layer_1
10
-9.277454
20
-40.415119
11
-9.052876
21
-40.881293
0
LINE
8
Layer_1
10
-9.052876
20
-40.881293
11
-8.873530
21
-41.371259
0
LINE
8
Layer_1
10
-8.873530
20
-41.371259
11
-8.742099
21
-41.882335
0
LINE
8
Layer_1
10
-8.742099
20
-41.882335
11
-8.661262
21
-42.411840
0
LINE
8
Layer_1
10
-8.661262
20
-42.411840
11
-8.633689
21
-42.957093
0
LINE
8
Layer_1
10
-8.633689
20
-42.957093
11
-8.661206
21
-43.502374
0
LINE
8
Layer_1
10
-8.661206
20
-43.502374
11
-8.742000
21
-44.031935
0
LINE
8
Layer_1
10
-8.742000
20
-44.031935
11
-8.873397
21
-44.543039
0
LINE
8
Layer_1
10
-8.873397
20
-44.543039
11
-9.052715
21
-45.033061
0
LINE
8
Layer_1
10
-9.052715
20
-45.033061
11
-9.277276
21
-45.499264
0
LINE
8
Layer_1
10
-9.277276
20
-45.499264
11
-9.544396
21
-45.938994
0
LINE
8
Layer_1
10
-9.544396
20
-45.938994
11
-9.851394
21
-46.349599
0
LINE
8
Layer_1
10
-9.851394
20
-46.349599
11
-10.195595
21
-46.728341
0
LINE
8
Layer_1
10
-10.195595
20
-46.728341
11
-10.574312
21
-47.072595
0
LINE
8
Layer_1
10
-10.574312
20
-47.072595
11
-10.984869
21
-47.379624
0
LINE
8
Layer_1
10
-10.984869
20
-47.379624
11
-11.424582
21
-47.646804
0
LINE
8
Layer_1
10
-11.424582
20
-47.646804
11
-11.890773
21
-47.871396
0
LINE
8
Layer_1
10
-11.890773
20
-47.871396
11
-12.380761
21
-48.050776
0
LINE
8
Layer_1
10
-12.380761
20
-48.050776
11
-12.891865
21
-48.182235
0
LINE
8
Layer_1
10
-12.891865
20
-48.182235
11
-13.421404
21
-48.263064
0
LINE
8
Layer_1
10
-13.421404
20
-48.263064
11
-13.966696
21
-48.290721
0
LINE
8
Layer_1
10
-13.966696
20
-48.290721
11
-14.512031
21
-48.263346
0
LINE
8
Layer_1
10
-14.512031
20
-48.263346
11
-15.041612
21
-48.182546
0
LINE
8
Layer_1
10
-15.041612
20
-48.182546
11
-15.552761
21
-48.051143
0
LINE
8
Layer_1
10
-15.552761
20
-48.051143
11
-16.042794
21
-47.871791
0
LINE
8
Layer_1
10
-16.042794
20
-47.871791
11
-16.509033
21
-47.647199
0
LINE
8
Layer_1
10
-16.509033
20
-47.647199
11
-16.948791
21
-47.380048
0
LINE
8
Layer_1
10
-16.948791
20
-47.380048
11
-17.359393
21
-47.073019
0
LINE
8
Layer_1
10
-17.359393
20
-47.073019
11
-17.738155
21
-46.728765
0
LINE
8
Layer_1
10
-17.738155
20
-46.728765
11
-18.082395
21
-46.350023
0
LINE
8
Layer_1
10
-18.082395
20
-46.350023
11
-18.389430
21
-45.939418
0
LINE
8
Layer_1
10
-18.389430
20
-45.939418
11
-18.656584
21
-45.499660
0
LINE
8
Layer_1
10
-18.656584
20
-45.499660
11
-18.881173
21
-45.033401
0
LINE
8
Layer_1
10
-18.881173
20
-45.033401
11
-19.060514
21
-44.543379
0
LINE
8
Layer_1
10
-19.060514
20
-44.543379
11
-19.191928
21
-44.032247
0
LINE
8
Layer_1
10
-19.191928
20
-44.032247
11
-19.272734
21
-43.502657
0
LINE
8
Layer_1
10
-19.272734
20
-43.502657
11
-19.300251
21
-42.957319
0
LINE
8
Layer_1
10
-19.300251
20
-42.957319
11
-19.272678
21
-42.412038
0
LINE
8
Layer_1
10
-19.272678
20
-42.412038
11
-19.191829
21
-41.882477
0
LINE
8
Layer_1
10
-19.191829
20
-41.882477
11
-19.060378
21
-41.371373
0
LINE
8
Layer_1
10
-19.060378
20
-41.371373
11
-18.881009
21
-40.881407
0
LINE
8
Layer_1
10
-18.881009
20
-40.881407
11
-18.656400
21
-40.415204
0
LINE
8
Layer_1
10
-18.656400
20
-40.415204
11
-18.389235
21
-39.975502
0
LINE
8
Layer_1
10
-18.389235
20
-39.975502
11
-18.082194
21
-39.564925
0
LINE
8
Layer_1
10
-18.082194
20
-39.564925
11
-17.737954
21
-39.186211
0
LINE
8
Layer_1
10
-17.737954
20
-39.186211
11
-17.359201
21
-38.842013
0
LINE
8
Layer_1
10
-17.359201
20
-38.842013
11
-16.948613
21
-38.535012
0
LINE
8
Layer_1
10
-16.948613
20
-38.535012
11
-16.508869
21
-38.267889
0
LINE
8
Layer_1
10
-16.508869
20
-38.267889
11
-16.042655
21
-38.043325
0
LINE
8
Layer_1
10
-16.042655
20
-38.043325
11
-15.552650
21
-37.864001
0
LINE
8
Layer_1
10
-15.552650
20
-37.864001
11
-15.041532
21
-37.732627
0
LINE
8
Layer_1
10
-15.041532
20
-37.732627
11
-14.511985
21
-37.651827
0
LINE
8
Layer_1
10
-14.511985
20
-37.651827
11
-13.966700
21
-37.624000
 0 
ENDSEC
 0 
EOF