<?xml version="1.0" encoding="UTF-8" standalone="no"?>
<!-- Created with Inkscape (http://www.inkscape.org/) -->

<svg
   width="210mm"
   height="297mm"
   viewBox="0 0 210 297"
   version="1.1"
   id="svg5"
   inkscape:version="1.1 (c4e8f9e, 2021-05-24)"
   sodipodi:docname="door-catch.svg"
   xmlns:inkscape="http://www.inkscape.org/namespaces/inkscape"
   xmlns:sodipodi="http://sodipodi.sourceforge.net/DTD/sodipodi-0.dtd"
   xmlns="http://www.w3.org/2000/svg"
   xmlns:svg="http://www.w3.org/2000/svg">
  <sodipodi:namedview
     id="namedview7"
     pagecolor="#ffffff"
     bordercolor="#666666"
     borderopacity="1.0"
     inkscape:pageshadow="2"
     inkscape:pageopacity="0.0"
     inkscape:pagecheckerboard="0"
     inkscape:document-units="mm"
     showgrid="false"
     inkscape:zoom="0.67081229"
     inkscape:cx="333.92352"
     inkscape:cy="540.38962"
     inkscape:window-width="1792"
     inkscape:window-height="1067"
     inkscape:window-x="0"
     inkscape:window-y="25"
     inkscape:window-maximized="0"
     inkscape:current-layer="layer1" />
  <defs
     id="defs2" />
  <g
     inkscape:label="Layer 1"
     inkscape:groupmode="layer"
     id="layer1">
    <path
       id="path1274"
       style="fill:#0000ff;fill-rule:evenodd;stroke-width:0.999999"
       d="M 151.18359 113.38672 C 130.24501 113.38672 113.38672 130.24306 113.38672 151.18164 L 113.38672 359.05664 C 113.38672 379.99521 130.24501 396.85156 151.18359 396.85156 C 162.59166 396.85156 172.77866 391.83998 179.69727 383.89844 L 179.77539 383.97656 L 264.56641 299.18555 L 264.56641 249.1875 L 216.50195 297.25195 C 216.03927 297.71464 215.56766 298.16193 215.08789 298.5957 C 214.60812 299.02944 214.11881 299.44869 213.62305 299.85352 C 213.12729 300.25838 212.62393 300.64948 212.11328 301.02539 C 211.60263 301.40145 211.08498 301.76234 210.56055 302.10938 C 210.03611 302.45632 209.50586 302.78934 208.96875 303.10742 C 208.43164 303.42566 207.88854 303.72841 207.33984 304.01758 C 206.79115 304.30671 206.2369 304.58154 205.67773 304.8418 C 205.11857 305.10221 204.55487 305.34873 203.98633 305.58008 C 203.41779 305.81139 202.84439 306.02804 202.26758 306.23047 C 201.69077 306.43305 201.10937 306.61945 200.52539 306.79297 C 199.94141 306.96645 199.35371 307.12711 198.76367 307.27148 C 198.17363 307.41624 197.58133 307.54661 196.98633 307.66211 C 196.39133 307.77776 195.79418 307.87791 195.19531 307.96484 C 194.59645 308.05139 193.99615 308.12344 193.39453 308.18164 C 192.79291 308.23947 192.19116 308.28378 191.58789 308.3125 C 190.98462 308.34274 190.37922 308.35547 189.77539 308.35547 C 189.17157 308.35547 188.56812 308.34047 187.96484 308.3125 C 187.36157 308.28226 186.75982 308.23947 186.1582 308.18164 C 185.55658 308.12381 184.95629 308.05177 184.35742 307.96484 C 183.75856 307.87791 183.16141 307.77776 182.56641 307.66211 C 181.9714 307.54646 181.37715 307.41609 180.78711 307.27148 C 180.19707 307.12711 179.60937 306.96645 179.02539 306.79297 C 178.44141 306.61949 177.86197 306.43279 177.28516 306.23047 C 176.70835 306.02789 176.13495 305.81139 175.56641 305.58008 C 174.99787 305.34877 174.43417 305.10206 173.875 304.8418 C 173.31583 304.58139 172.76158 304.30679 172.21289 304.01758 C 171.6642 303.72844 171.1211 303.42554 170.58398 303.10742 C 170.04686 302.78919 169.51467 302.45635 168.99023 302.10938 C 168.4658 301.76241 167.94815 301.40134 167.4375 301.02539 C 166.92685 300.64933 166.42351 300.25838 165.92773 299.85352 C 165.43198 299.44869 164.94462 299.02944 164.46484 298.5957 C 163.98507 298.16193 163.51346 297.71464 163.05078 297.25195 C 162.5881 296.7893 162.1408 296.3177 161.70703 295.83789 C 161.27327 295.35816 160.85211 294.86881 160.44727 294.37305 C 160.04241 293.87729 159.65327 293.3739 159.27734 292.86328 C 158.90143 292.35263 158.54037 291.83497 158.19336 291.31055 C 157.84636 290.78612 157.51341 290.25587 157.19531 289.71875 C 156.87723 289.18164 156.57238 288.63854 156.2832 288.08984 C 155.99403 287.54115 155.71924 286.98689 155.45898 286.42773 C 155.19873 285.86856 154.95399 285.30289 154.72266 284.73438 C 154.49131 284.16584 154.27469 283.59439 154.07227 283.01758 C 153.86983 282.44077 153.68132 281.85937 153.50781 281.27539 C 153.33429 280.69142 153.17585 280.10371 153.03125 279.51367 C 152.88665 278.92362 152.75629 278.33134 152.64062 277.73633 C 152.52499 277.14133 152.42272 276.54417 152.33594 275.94531 C 152.2492 275.34644 152.17697 274.74615 152.11914 274.14453 C 152.06131 273.54292 152.01915 272.93921 151.99023 272.33594 C 151.96151 271.73267 151.94727 271.12922 151.94727 270.52539 C 151.94727 269.92157 151.96125 269.31812 151.99023 268.71484 C 152.01934 268.11157 152.06131 267.50787 152.11914 266.90625 C 152.17697 266.30463 152.2492 265.70434 152.33594 265.10547 C 152.42268 264.50661 152.52495 263.90945 152.64062 263.31445 C 152.75632 262.71945 152.88668 262.12715 153.03125 261.53711 C 153.17585 260.94707 153.33429 260.35937 153.50781 259.77539 C 153.68133 259.19142 153.86985 258.61197 154.07227 258.03516 C 154.2747 257.45835 154.49132 256.88495 154.72266 256.31641 C 154.954 255.74787 155.19873 255.18417 155.45898 254.625 C 155.71924 254.06584 155.99403 253.51159 156.2832 252.96289 C 156.57237 252.4142 156.87722 251.87109 157.19531 251.33398 C 157.5134 250.79687 157.84635 250.26466 158.19336 249.74023 C 158.54036 249.21581 158.90142 248.69815 159.27734 248.1875 C 159.65326 247.67686 160.04241 247.1735 160.44727 246.67773 C 160.85211 246.18198 161.27327 245.69461 161.70703 245.21484 C 162.1408 244.73506 162.5881 244.26346 163.05078 243.80078 L 188.97852 217.87305 L 188.97852 151.18164 C 188.97852 130.24306 172.12218 113.38672 151.18359 113.38672 z M 151.0625 139.83398 A 9.4488189 9.4488189 0 0 1 160.51172 149.28125 A 9.4488189 9.4488189 0 0 1 151.0625 158.73047 A 9.4488189 9.4488189 0 0 1 141.61328 149.28125 A 9.4488189 9.4488189 0 0 1 151.0625 139.83398 z M 150.51172 339.83398 A 18.897638 18.897638 0 0 1 169.4082 358.73047 A 18.897638 18.897638 0 0 1 150.51172 377.62891 A 18.897638 18.897638 0 0 1 131.61328 358.73047 A 18.897638 18.897638 0 0 1 150.51172 339.83398 z "
       transform="scale(0.26458333)" />
  </g>
</svg>
