  0
SECTION
  2
HEADER
  9
$ACADVER
  1
AC1014
  9
$HANDSEED
  5
FFFF
  9
$MEASUREMENT
 70
     1
  0
ENDSEC
  0
SECTION
  2
TABLES
  0
TABLE
  2
VPORT
  5
8
330
0
100
AcDbSymbolTable
 70
     4
  0
VPORT
  5
2E
330
8
100
AcDbSymbolTableRecord
100
AcDbViewportTableRecord
  2
*ACTIVE
 70
     0
 10
0.0
 20
0.0
 11
1.0
 21
1.0
 12
210.0
 22
148.5
 13
0.0
 23
0.0
 14
10.0
 24
10.0
 15
10.0
 25
10.0
 16
0.0
 26
0.0
 36
1.0
 17
0.0
 27
0.0
 37
0.0
 40
341.0
 41
1.24
 42
50.0
 43
0.0
 44
0.0
 50
0.0
 51
0.0
 71
     0
 72
   100
 73
     1
 74
     3
 75
     0
 76
     0
 77
     0
 78
     0
  0
ENDTAB
  0
TABLE
  2
LTYPE
  5
5
330
0
100
AcDbSymbolTable
 70
     1
  0
LTYPE
  5
14
330
5
100
AcDbSymbolTableRecord
100
AcDbLinetypeTableRecord
  2
BYBLOCK
 70
     0
  3

 72
    65
 73
     0
 40
0.0
  0
LTYPE
  5
15
330
5
100
AcDbSymbolTableRecord
100
AcDbLinetypeTableRecord
  2
BYLAYER
 70
     0
  3

 72
    65
 73
     0
 40
0.0
  0
LTYPE
  5
16
330
5
100
AcDbSymbolTableRecord
100
AcDbLinetypeTableRecord
  2
CONTINUOUS
 70
     0
  3
Solid line
 72
    65
 73
     0
 40
0.0
  0
ENDTAB
  0
TABLE
  2
LAYER
  5
2
100
AcDbSymbolTable
 70
2
  0
LAYER
  5
50
100
AcDbSymbolTableRecord
100
AcDbLayerTableRecord
  2
0
 70
0
  6
CONTINUOUS
  0
LAYER
  5
51
100
AcDbSymbolTableRecord
100
AcDbLayerTableRecord
  2
Layer_1
 70
0
  6
CONTINUOUS
  0
ENDTAB
  0
TABLE
  2
STYLE
  5
3
330
0
100
AcDbSymbolTable
 70
     1
  0
STYLE
  5
11
330
3
100
AcDbSymbolTableRecord
100
AcDbTextStyleTableRecord
  2
STANDARD
 70
     0
 40
0.0
 41
1.0
 50
0.0
 71
     0
 42
2.5
  3
txt
  4

  0
ENDTAB
  0
TABLE
  2
VIEW
  5
6
330
0
100
AcDbSymbolTable
 70
     0
  0
ENDTAB
  0
TABLE
  2
UCS
  5
7
330
0
100
AcDbSymbolTable
 70
     0
  0
ENDTAB
  0
TABLE
  2
APPID
  5
9
330
0
100
AcDbSymbolTable
 70
     2
  0
APPID
  5
12
330
9
100
AcDbSymbolTableRecord
100
AcDbRegAppTableRecord
  2
ACAD
 70
     0
  0
ENDTAB
  0
TABLE
  2
DIMSTYLE
  5
A
330
0
100
AcDbSymbolTable
 70
     1
  0
DIMSTYLE
105
27
330
A
100
AcDbSymbolTableRecord
100
AcDbDimStyleTableRecord
  2
ISO-25
 70
     0
  3

  4

  5

  6

  7

 40
1.0
 41
2.5
 42
0.625
 43
3.75
 44
1.25
 45
0.0
 46
0.0
 47
0.0
 48
0.0
140
2.5
141
2.5
142
0.0
143
0.03937007874016
144
1.0
145
0.0
146
1.0
147
0.625
 71
     0
 72
     0
 73
     0
 74
     0
 75
     0
 76
     0
 77
     1
 78
     8
170
     0
171
     3
172
     1
173
     0
174
     0
175
     0
176
     0
177
     0
178
     0
270
     2
271
     2
272
     2
273
     2
274
     3
340
11
275
     0
280
     0
281
     0
282
     0
283
     0
284
     8
285
     0
286
     0
287
     3
288
     0
  0
ENDTAB
  0
TABLE
  2
BLOCK_RECORD
  5
1
330
0
100
AcDbSymbolTable
 70
     1
  0
BLOCK_RECORD
  5
1F
330
1
100
AcDbSymbolTableRecord
100
AcDbBlockTableRecord
  2
*MODEL_SPACE
  0
BLOCK_RECORD
  5
1B
330
1
100
AcDbSymbolTableRecord
100
AcDbBlockTableRecord
  2
*PAPER_SPACE
  0
ENDTAB
  0
ENDSEC
  0
SECTION
  2
BLOCKS
  0
BLOCK
  5
20
330
1F
100
AcDbEntity
  8
0
100
AcDbBlockBegin
  2
*MODEL_SPACE
 70
     0
 10
0.0
 20
0.0
 30
0.0
  3
*MODEL_SPACE
  1

  0
ENDBLK
  5
21
330
1F
100
AcDbEntity
  8
0
100
AcDbBlockEnd
  0
BLOCK
  5
1C
330
1B
100
AcDbEntity
 67
     1
  8
0
100
AcDbBlockBegin
  2
*PAPER_SPACE
  1

  0
ENDBLK
  5
1D
330
1B
100
AcDbEntity
 67
     1
  8
0
100
AcDbBlockEnd
  0
ENDSEC
  0
SECTION
  2
ENTITIES
  0
LWPOLYLINE
  5
100
100
AcDbEntity
  8
Layer_1
 62
7
100
AcDbPolyline
 90
86
 70
1
 10
7.517887
 20
68.285798
 30
0.0
 10
6.029089
 20
68.135935
 30
0.0
 10
4.642611
 20
67.705472
 30
0.0
 10
3.387907
 20
67.024376
 30
0.0
 10
2.294950
 20
66.122104
 30
0.0
 10
1.392680
 20
65.029150
 30
0.0
 10
0.711584
 20
63.774446
 30
0.0
 10
0.281120
 20
62.387966
 30
0.0
 10
0.131258
 20
60.899169
 30
0.0
 10
0.133842
 20
60.826821
 30
0.0
 10
0.133842
 20
55.399246
 30
0.0
 10
9.354461
 20
27.231974
 30
0.0
 10
9.354461
 20
26.725535
 30
0.0
 10
9.354461
 20
26.219123
 30
0.0
 10
9.354461
 20
25.713213
 30
0.0
 10
9.354461
 20
25.206774
 30
0.0
 10
9.354461
 20
24.700864
 30
0.0
 10
9.354461
 20
24.194426
 30
0.0
 10
9.354461
 20
23.688013
 30
0.0
 10
9.361179
 20
23.643563
 30
0.0
 10
9.366862
 20
23.598610
 30
0.0
 10
9.371514
 20
23.553658
 30
0.0
 10
9.375649
 20
23.508678
 30
0.0
 10
9.378750
 20
23.463726
 30
0.0
 10
9.381343
 20
23.418244
 30
0.0
 10
9.382904
 20
23.373291
 30
0.0
 10
9.383433
 20
23.327809
 30
0.0
 10
9.380332
 20
23.204831
 30
0.0
 10
9.371030
 20
23.082884
 30
0.0
 10
9.356044
 20
22.963504
 30
0.0
 10
9.334856
 20
22.845156
 30
0.0
 10
9.307984
 20
22.729401
 30
0.0
 10
9.275945
 20
22.615710
 30
0.0
 10
9.238221
 20
22.504611
 30
0.0
 10
9.195329
 20
22.395576
 30
0.0
 10
9.147270
 20
22.289637
 30
0.0
 10
9.094560
 20
22.186291
 30
0.0
 10
9.036683
 20
22.086040
 30
0.0
 10
8.974671
 20
21.988885
 30
0.0
 10
8.908008
 20
21.894826
 30
0.0
 10
8.836695
 20
21.804391
 30
0.0
 10
8.761247
 20
21.717582
 30
0.0
 10
8.682182
 20
21.634370
 30
0.0
 10
8.598983
 20
21.555313
 30
0.0
 10
8.512167
 20
21.479880
 30
0.0
 10
8.421733
 20
21.409077
 30
0.0
 10
8.327682
 20
21.341900
 30
0.0
 10
8.230530
 20
21.279881
 30
0.0
 10
8.130278
 20
21.222017
 30
0.0
 10
8.026925
 20
21.169286
 30
0.0
 10
7.920989
 20
21.121237
 30
0.0
 10
7.812468
 20
21.078348
 30
0.0
 10
7.700847
 20
21.040619
 30
0.0
 10
7.587159
 20
21.008578
 30
0.0
 10
7.471404
 20
20.981696
 30
0.0
 10
7.353581
 20
20.960529
 30
0.0
 10
7.233692
 20
20.945448
 30
0.0
 10
7.111736
 20
20.936188
 30
0.0
 10
6.988746
 20
20.933013
 30
0.0
 10
6.877125
 20
20.936188
 30
0.0
 10
6.766537
 20
20.943861
 30
0.0
 10
6.656466
 20
20.956825
 30
0.0
 10
6.547429
 20
20.974817
 30
0.0
 10
6.439425
 20
20.998100
 30
0.0
 10
6.332972
 20
21.025485
 30
0.0
 10
6.228069
 20
21.058557
 30
0.0
 10
6.124716
 20
21.095758
 30
0.0
 10
6.023430
 20
21.138118
 30
0.0
 10
5.923695
 20
21.185161
 30
0.0
 10
5.826543
 20
21.236305
 30
0.0
 10
0.191228
 20
24.721899
 30
0.0
 10
0.133867
 20
24.717136
 30
0.0
 10
0.133867
 20
6.781271
 30
0.0
 10
6.705534
 20
0.210370
 30
0.0
 10
41.850159
 20
35.355508
 30
0.0
 10
13.287561
 20
65.510256
 30
0.0
 10
12.503629
 20
66.338113
 30
0.0
 10
12.477274
 20
66.365503
 30
0.0
 10
12.474681
 20
66.364444
 30
0.0
 10
11.947581
 20
66.801110
 30
0.0
 10
11.385859
 20
67.184549
 30
0.0
 10
10.793647
 20
67.513728
 30
0.0
 10
10.175080
 20
67.786580
 30
0.0
 10
9.534292
 20
68.001554
 30
0.0
 10
8.874901
 20
68.157615
 30
0.0
 10
8.201557
 20
68.252701
 30
0.0
  0
LWPOLYLINE
  5
101
100
AcDbEntity
  8
Layer_1
 62
7
100
AcDbPolyline
 90
32
 70
1
 10
7.517887
 20
63.293854
 30
0.0
 10
8.000545
 20
63.245279
 30
0.0
 10
8.450130
 20
63.105751
 30
0.0
 10
8.856824
 20
62.885094
 30
0.0
 10
9.211324
 20
62.592605
 30
0.0
 10
9.503813
 20
62.238106
 30
0.0
 10
9.724471
 20
61.831412
 30
0.0
 10
9.863997
 20
61.381827
 30
0.0
 10
9.912573
 20
60.899169
 30
0.0
 10
9.863997
 20
60.416510
 30
0.0
 10
9.724471
 20
59.966925
 30
0.0
 10
9.503813
 20
59.560231
 30
0.0
 10
9.211324
 20
59.205732
 30
0.0
 10
8.856824
 20
58.913243
 30
0.0
 10
8.450130
 20
58.692586
 30
0.0
 10
8.000545
 20
58.553058
 30
0.0
 10
7.517887
 20
58.504483
 30
0.0
 10
7.035229
 20
58.553058
 30
0.0
 10
6.586161
 20
58.692586
 30
0.0
 10
6.179468
 20
58.913759
 30
0.0
 10
5.824967
 20
59.206248
 30
0.0
 10
5.532479
 20
59.560231
 30
0.0
 10
5.311820
 20
59.966925
 30
0.0
 10
5.172294
 20
60.416510
 30
0.0
 10
5.123718
 20
60.899169
 30
0.0
 10
5.172294
 20
61.381827
 30
0.0
 10
5.311820
 20
61.831412
 30
0.0
 10
5.532479
 20
62.238106
 30
0.0
 10
5.824967
 20
62.592089
 30
0.0
 10
6.179468
 20
62.884578
 30
0.0
 10
6.586161
 20
63.105751
 30
0.0
 10
7.035229
 20
63.245279
 30
0.0
  0
LWPOLYLINE
  5
102
100
AcDbEntity
  8
Layer_1
 62
7
100
AcDbPolyline
 90
32
 70
1
 10
32.389238
 20
37.893854
 30
0.0
 10
32.871894
 20
37.845280
 30
0.0
 10
33.320963
 20
37.705752
 30
0.0
 10
33.727657
 20
37.484578
 30
0.0
 10
34.082156
 20
37.192090
 30
0.0
 10
34.374645
 20
36.838106
 30
0.0
 10
34.595305
 20
36.431412
 30
0.0
 10
34.734830
 20
35.981827
 30
0.0
 10
34.783405
 20
35.499169
 30
0.0
 10
34.734830
 20
35.016511
 30
0.0
 10
34.595305
 20
34.566925
 30
0.0
 10
34.374645
 20
34.160232
 30
0.0
 10
34.082156
 20
33.806248
 30
0.0
 10
33.727657
 20
33.513759
 30
0.0
 10
33.320963
 20
33.292586
 30
0.0
 10
32.871894
 20
33.153058
 30
0.0
 10
32.389238
 20
33.104483
 30
0.0
 10
31.906580
 20
33.153058
 30
0.0
 10
31.456995
 20
33.292586
 30
0.0
 10
31.050301
 20
33.513244
 30
0.0
 10
30.695799
 20
33.805732
 30
0.0
 10
30.403313
 20
34.160232
 30
0.0
 10
30.182653
 20
34.566925
 30
0.0
 10
30.043128
 20
35.016511
 30
0.0
 10
29.994550
 20
35.499169
 30
0.0
 10
30.043128
 20
35.981827
 30
0.0
 10
30.182653
 20
36.431412
 30
0.0
 10
30.403313
 20
36.838106
 30
0.0
 10
30.695799
 20
37.192605
 30
0.0
 10
31.050301
 20
37.485094
 30
0.0
 10
31.456995
 20
37.705752
 30
0.0
 10
31.906580
 20
37.845280
 30
0.0
  0
ENDSEC
  0
SECTION
  2
OBJECTS
  0
DICTIONARY
  5
C
330
0
100
AcDbDictionary
  3
ACAD_GROUP
350
D
  3
ACAD_MLINESTYLE
350
17
  0
DICTIONARY
  5
D
330
C
100
AcDbDictionary
  0
DICTIONARY
  5
1A
330
C
100
AcDbDictionary
  0
DICTIONARY
  5
17
330
C
100
AcDbDictionary
  3
STANDARD
350
18
  0
DICTIONARY
  5
19
330
C
100
AcDbDictionary
  0
ENDSEC
  0
EOF
