  0
SECTION
  2
HEADER
  9
$ACADVER
  1
AC1014
  9
$HANDSEED
  5
FFFF
  9
$MEASUREMENT
 70
     1
  0
ENDSEC
  0
SECTION
  2
TABLES
  0
TABLE
  2
VPORT
  5
8
330
0
100
AcDbSymbolTable
 70
     4
  0
VPORT
  5
2E
330
8
100
AcDbSymbolTableRecord
100
AcDbViewportTableRecord
  2
*ACTIVE
 70
     0
 10
0.0
 20
0.0
 11
1.0
 21
1.0
 12
210.0
 22
148.5
 13
0.0
 23
0.0
 14
10.0
 24
10.0
 15
10.0
 25
10.0
 16
0.0
 26
0.0
 36
1.0
 17
0.0
 27
0.0
 37
0.0
 40
341.0
 41
1.24
 42
50.0
 43
0.0
 44
0.0
 50
0.0
 51
0.0
 71
     0
 72
   100
 73
     1
 74
     3
 75
     0
 76
     0
 77
     0
 78
     0
  0
ENDTAB
  0
TABLE
  2
LTYPE
  5
5
330
0
100
AcDbSymbolTable
 70
     1
  0
LTYPE
  5
14
330
5
100
AcDbSymbolTableRecord
100
AcDbLinetypeTableRecord
  2
BYBLOCK
 70
     0
  3

 72
    65
 73
     0
 40
0.0
  0
LTYPE
  5
15
330
5
100
AcDbSymbolTableRecord
100
AcDbLinetypeTableRecord
  2
BYLAYER
 70
     0
  3

 72
    65
 73
     0
 40
0.0
  0
LTYPE
  5
16
330
5
100
AcDbSymbolTableRecord
100
AcDbLinetypeTableRecord
  2
CONTINUOUS
 70
     0
  3
Solid line
 72
    65
 73
     0
 40
0.0
  0
ENDTAB
  0
TABLE
  2
LAYER
  5
2
100
AcDbSymbolTable
 70
2
  0
LAYER
  5
50
100
AcDbSymbolTableRecord
100
AcDbLayerTableRecord
  2
0
 70
0
  6
CONTINUOUS
  0
LAYER
  5
51
100
AcDbSymbolTableRecord
100
AcDbLayerTableRecord
  2
Layer_1
 70
0
  6
CONTINUOUS
  0
ENDTAB
  0
TABLE
  2
STYLE
  5
3
330
0
100
AcDbSymbolTable
 70
     1
  0
STYLE
  5
11
330
3
100
AcDbSymbolTableRecord
100
AcDbTextStyleTableRecord
  2
STANDARD
 70
     0
 40
0.0
 41
1.0
 50
0.0
 71
     0
 42
2.5
  3
txt
  4

  0
ENDTAB
  0
TABLE
  2
VIEW
  5
6
330
0
100
AcDbSymbolTable
 70
     0
  0
ENDTAB
  0
TABLE
  2
UCS
  5
7
330
0
100
AcDbSymbolTable
 70
     0
  0
ENDTAB
  0
TABLE
  2
APPID
  5
9
330
0
100
AcDbSymbolTable
 70
     2
  0
APPID
  5
12
330
9
100
AcDbSymbolTableRecord
100
AcDbRegAppTableRecord
  2
ACAD
 70
     0
  0
ENDTAB
  0
TABLE
  2
DIMSTYLE
  5
A
330
0
100
AcDbSymbolTable
 70
     1
  0
DIMSTYLE
105
27
330
A
100
AcDbSymbolTableRecord
100
AcDbDimStyleTableRecord
  2
ISO-25
 70
     0
  3

  4

  5

  6

  7

 40
1.0
 41
2.5
 42
0.625
 43
3.75
 44
1.25
 45
0.0
 46
0.0
 47
0.0
 48
0.0
140
2.5
141
2.5
142
0.0
143
0.03937007874016
144
1.0
145
0.0
146
1.0
147
0.625
 71
     0
 72
     0
 73
     0
 74
     0
 75
     0
 76
     0
 77
     1
 78
     8
170
     0
171
     3
172
     1
173
     0
174
     0
175
     0
176
     0
177
     0
178
     0
270
     2
271
     2
272
     2
273
     2
274
     3
340
11
275
     0
280
     0
281
     0
282
     0
283
     0
284
     8
285
     0
286
     0
287
     3
288
     0
  0
ENDTAB
  0
TABLE
  2
BLOCK_RECORD
  5
1
330
0
100
AcDbSymbolTable
 70
     1
  0
BLOCK_RECORD
  5
1F
330
1
100
AcDbSymbolTableRecord
100
AcDbBlockTableRecord
  2
*MODEL_SPACE
  0
BLOCK_RECORD
  5
1B
330
1
100
AcDbSymbolTableRecord
100
AcDbBlockTableRecord
  2
*PAPER_SPACE
  0
ENDTAB
  0
ENDSEC
  0
SECTION
  2
BLOCKS
  0
BLOCK
  5
20
330
1F
100
AcDbEntity
  8
0
100
AcDbBlockBegin
  2
*MODEL_SPACE
 70
     0
 10
0.0
 20
0.0
 30
0.0
  3
*MODEL_SPACE
  1

  0
ENDBLK
  5
21
330
1F
100
AcDbEntity
  8
0
100
AcDbBlockEnd
  0
BLOCK
  5
1C
330
1B
100
AcDbEntity
 67
     1
  8
0
100
AcDbBlockBegin
  2
*PAPER_SPACE
  1

  0
ENDBLK
  5
1D
330
1B
100
AcDbEntity
 67
     1
  8
0
100
AcDbBlockEnd
  0
ENDSEC
  0
SECTION
  2
ENTITIES
  0
LWPOLYLINE
  5
100
100
AcDbEntity
  8
Layer_1
 62
7
100
AcDbPolyline
 90
1440
 70
1
 10
378.771740
 20
3.590620
 30
0.0
 10
381.963680
 20
2.499840
 30
0.0
 10
385.152710
 20
1.316770
 30
0.0
 10
385.152710
 20
-1.317050
 30
0.0
 10
381.963680
 20
-2.500120
 30
0.0
 10
378.771740
 20
-3.590900
 30
0.0
 10
378.735940
 20
-6.325700
 30
0.0
 10
381.898230
 20
-7.499660
 30
0.0
 10
385.055200
 20
-8.765810
 30
0.0
 10
384.986300
 20
-11.398720
 30
0.0
 10
381.767390
 20
-12.497910
 30
0.0
 10
378.547990
 20
-13.504760
 30
0.0
 10
378.440620
 20
-16.237680
 30
0.0
 10
381.571090
 20
-17.494020
 30
0.0
 10
384.693830
 20
-18.842370
 30
0.0
 10
384.555990
 20
-21.472580
 30
0.0
 10
381.309420
 20
-22.487130
 30
0.0
 10
378.064770
 20
-23.409360
 30
0.0
 10
377.885890
 20
-26.138540
 30
0.0
 10
380.982400
 20
-27.476390
 30
0.0
 10
384.068780
 20
-28.906030
 30
0.0
 10
383.862130
 20
-31.531720
 30
0.0
 10
380.590110
 20
-32.460940
 30
0.0
 10
377.322430
 20
-33.297920
 30
0.0
 10
377.072170
 20
-36.021480
 30
0.0
 10
380.132600
 20
-37.439930
 30
0.0
 10
383.180500
 20
-38.949870
 30
0.0
 10
382.905190
 20
-41.569250
 30
0.0
 10
379.609970
 20
-42.412500
 30
0.0
 10
376.321500
 20
-43.163660
 30
0.0
 10
376.000030
 20
-45.879730
 30
0.0
 10
379.022280
 20
-47.377810
 30
0.0
 10
382.029610
 20
-48.967020
 30
0.0
 10
381.685830
 20
-51.578300
 30
0.0
 10
378.369660
 20
-52.335000
 30
0.0
 10
375.062650
 20
-52.999810
 30
0.0
 10
374.670190
 20
-55.706540
 30
0.0
 10
377.652200
 20
-57.283220
 30
0.0
 10
380.616890
 20
-58.950610
 30
0.0
 10
380.204870
 20
-61.551990
 30
0.0
 10
376.870030
 20
-62.221630
 30
0.0
 10
373.546760
 20
-62.799650
 30
0.0
 10
373.083580
 20
-65.495180
 30
0.0
 10
376.023290
 20
-67.149370
 30
0.0
 10
378.943320
 20
-68.893790
 30
0.0
 10
378.463350
 20
-71.483500
 30
0.0
 10
375.112120
 20
-72.065610
 30
0.0
 10
371.774850
 20
-72.556440
 30
0.0
 10
371.241270
 20
-75.238920
 30
0.0
 10
374.136670
 20
-76.969500
 30
0.0
 10
377.010040
 20
-78.789760
 30
0.0
 10
376.462440
 20
-81.366020
 30
0.0
 10
373.097120
 20
-81.860210
 30
0.0
 10
369.748150
 20
-82.263510
 30
0.0
 10
369.144540
 20
-84.931100
 30
0.0
 10
371.993640
 20
-86.736880
 30
0.0
 10
374.818380
 20
-88.631730
 30
0.0
 10
374.203530
 20
-91.192770
 30
0.0
 10
370.826430
 20
-91.598700
 30
0.0
 10
367.468040
 20
-91.914200
 30
0.0
 10
366.794810
 20
-94.565070
 30
0.0
 10
369.595670
 20
-96.444820
 30
0.0
 10
372.369830
 20
-98.412960
 30
0.0
 10
371.688150
 20
-100.957030
 30
0.0
 10
368.301580
 20
-101.274410
 30
0.0
 10
364.936090
 20
-101.501890
 30
0.0
 10
364.193690
 20
-104.134240
 30
0.0
 10
366.944390
 20
-106.086650
 30
0.0
 10
369.666080
 20
-108.126740
 30
0.0
 10
368.918040
 20
-110.652100
 30
0.0
 10
365.524320
 20
-110.880720
 30
0.0
 10
362.154030
 20
-111.020020
 30
0.0
 10
361.342980
 20
-113.632030
 30
0.0
 10
364.041630
 20
-115.655780
 30
0.0
 10
366.708980
 20
-117.766420
 30
0.0
 10
365.895090
 20
-120.271330
 30
0.0
 10
362.496550
 20
-120.411030
 30
0.0
 10
359.123770
 20
-120.462030
 30
0.0
 10
358.244620
 20
-123.051920
 30
0.0
 10
360.889370
 20
-125.145620
 30
0.0
 10
363.500560
 20
-127.325360
 30
0.0
 10
362.621370
 20
-129.808100
 30
0.0
 10
359.220340
 20
-129.858800
 30
0.0
 10
355.847380
 20
-129.821500
 30
0.0
 10
354.900740
 20
-132.387480
 30
0.0
 10
357.489770
 20
-134.549700
 30
0.0
 10
360.043010
 20
-136.797040
 30
0.0
 10
359.099140
 20
-139.255920
 30
0.0
 10
355.697940
 20
-139.217520
 30
0.0
 10
352.327110
 20
-139.091960
 30
0.0
 10
351.313630
 20
-141.632280
 30
0.0
 10
353.845170
 20
-143.861530
 30
0.0
 10
356.338700
 20
-146.174940
 30
0.0
 10
355.330790
 20
-148.608260
 30
0.0
 10
351.931770
 20
-148.480900
 30
0.0
 10
348.565380
 20
-148.267140
 30
0.0
 10
347.485740
 20
-150.780070
 30
0.0
 10
349.958060
 20
-153.074820
 30
0.0
 10
352.390180
 20
-155.452710
 30
0.0
 10
351.318920
 20
-157.858810
 30
0.0
 10
347.924390
 20
-157.642510
 30
0.0
 10
344.564750
 20
-157.340710
 30
0.0
 10
343.419710
 20
-159.824510
 30
0.0
 10
345.831110
 20
-162.183200
 30
0.0
 10
348.200150
 20
-164.623940
 30
0.0
 10
347.066270
 20
-167.001180
 30
0.0
 10
343.678570
 20
-166.696090
 30
0.0
 10
340.327980
 20
-166.306450
 30
0.0
 10
339.118310
 20
-168.759420
 30
0.0
 10
341.467140
 20
-171.180420
 30
0.0
 10
343.771480
 20
-173.682340
 30
0.0
 10
342.575760
 20
-176.029080
 30
0.0
 10
339.197200
 20
-175.635420
 30
0.0
 10
335.857960
 20
-175.158200
 30
0.0
 10
334.584490
 20
-177.578670
 30
0.0
 10
336.869150
 20
-180.060330
 30
0.0
 10
339.107210
 20
-182.621710
 30
0.0
 10
337.850460
 20
-184.936350
 30
0.0
 10
334.483370
 20
-184.454380
 30
0.0
 10
331.157770
 20
-183.889920
 30
0.0
 10
329.821370
 20
-186.276220
 30
0.0
 10
332.040280
 20
-188.816830
 30
0.0
 10
334.210530
 20
-191.435920
 30
0.0
 10
332.893620
 20
-193.716870
 30
0.0
 10
329.540300
 20
-193.146930
 30
0.0
 10
326.230610
 20
-192.495600
 30
0.0
 10
324.832210
 20
-194.846110
 30
0.0
 10
326.983850
 20
-197.443930
 30
0.0
 10
329.084790
 20
-200.118930
 30
0.0
 10
327.708630
 20
-202.364630
 30
0.0
 10
324.371380
 20
-201.707100
 30
0.0
 10
321.079880
 20
-200.969360
 30
0.0
 10
319.620420
 20
-203.282450
 30
0.0
 10
321.703330
 20
-205.935710
 30
0.0
 10
323.733520
 20
-208.664790
 30
0.0
 10
322.299040
 20
-210.873690
 30
0.0
 10
318.980150
 20
-210.129030
 30
0.0
 10
315.709090
 20
-209.305380
 30
0.0
 10
314.189580
 20
-211.579480
 30
0.0
 10
316.202320
 20
-214.286350
 30
0.0
 10
318.160380
 20
-217.067640
 30
0.0
 10
316.668570
 20
-219.238230
 30
0.0
 10
313.370310
 20
-218.406950
 30
0.0
 10
310.121930
 20
-217.497960
 30
0.0
 10
308.543410
 20
-219.731500
 30
0.0
 10
310.484600
 20
-222.490130
 30
0.0
 10
312.369190
 20
-225.321720
 30
0.0
 10
310.821070
 20
-227.452520
 30
0.0
 10
307.545700
 20
-226.535190
 30
0.0
 10
304.322220
 20
-225.541470
 30
0.0
 10
302.685790
 20
-227.732930
 30
0.0
 10
304.554100
 20
-230.541430
 30
0.0
 10
306.363910
 20
-233.421380
 30
0.0
 10
304.760550
 20
-235.510930
 30
0.0
 10
301.510310
 20
-234.508170
 30
0.0
 10
298.313950
 20
-233.430410
 30
0.0
 10
296.620710
 20
-235.578280
 30
0.0
 10
298.414860
 20
-238.434720
 30
0.0
 10
300.148670
 20
-241.361070
 30
0.0
 10
298.491160
 20
-243.407920
 30
0.0
 10
295.268280
 20
-242.320420
 30
0.0
 10
292.101230
 20
-241.159370
 30
0.0
 10
290.352350
 20
-243.262170
 30
0.0
 10
292.071110
 20
-246.164610
 30
0.0
 10
293.727720
 20
-249.135330
 30
0.0
 10
292.017200
 20
-251.138100
 30
0.0
 10
288.823890
 20
-249.966610
 30
0.0
 10
285.688320
 20
-248.723050
 30
0.0
 10
283.884990
 20
-250.779350
 30
0.0
 10
285.527190
 20
-253.725780
 30
0.0
 10
287.105470
 20
-256.738850
 30
0.0
 10
285.343100
 20
-258.696160
 30
0.0
 10
282.181560
 20
-257.441480
 30
0.0
 10
279.079610
 20
-256.116260
 30
0.0
 10
277.223070
 20
-258.124660
 30
0.0
 10
278.787580
 20
-261.113070
 30
0.0
 10
280.286440
 20
-264.166420
 30
0.0
 10
278.473450
 20
-266.076920
 30
0.0
 10
275.345830
 20
-264.739910
 30
0.0
 10
272.279640
 20
-263.333950
 30
0.0
 10
270.371160
 20
-265.293060
 30
0.0
 10
271.856900
 20
-268.321400
 30
0.0
 10
273.275330
 20
-271.412940
 30
0.0
 10
271.412940
 20
-273.275330
 30
0.0
 10
268.321400
 20
-271.856900
 30
0.0
 10
265.293060
 20
-270.371160
 30
0.0
 10
263.333950
 20
-272.279640
 30
0.0
 10
264.739910
 20
-275.345830
 30
0.0
 10
266.076920
 20
-278.473450
 30
0.0
 10
264.166420
 20
-280.286440
 30
0.0
 10
261.113070
 20
-278.787580
 30
0.0
 10
258.124660
 20
-277.223070
 30
0.0
 10
256.116260
 20
-279.079610
 30
0.0
 10
257.441480
 20
-282.181560
 30
0.0
 10
258.696160
 20
-285.343100
 30
0.0
 10
256.738850
 20
-287.105470
 30
0.0
 10
253.725780
 20
-285.527190
 30
0.0
 10
250.779350
 20
-283.884990
 30
0.0
 10
248.723050
 20
-285.688320
 30
0.0
 10
249.966610
 20
-288.823890
 30
0.0
 10
251.138100
 20
-292.017200
 30
0.0
 10
249.135330
 20
-293.727720
 30
0.0
 10
246.164610
 20
-292.071110
 30
0.0
 10
243.262170
 20
-290.352350
 30
0.0
 10
241.159370
 20
-292.101230
 30
0.0
 10
242.320420
 20
-295.268280
 30
0.0
 10
243.407920
 20
-298.491160
 30
0.0
 10
241.361070
 20
-300.148670
 30
0.0
 10
238.434720
 20
-298.414860
 30
0.0
 10
235.578280
 20
-296.620710
 30
0.0
 10
233.430410
 20
-298.313950
 30
0.0
 10
234.508170
 20
-301.510310
 30
0.0
 10
235.510930
 20
-304.760550
 30
0.0
 10
233.421380
 20
-306.363910
 30
0.0
 10
230.541430
 20
-304.554100
 30
0.0
 10
227.732930
 20
-302.685790
 30
0.0
 10
225.541470
 20
-304.322220
 30
0.0
 10
226.535190
 20
-307.545700
 30
0.0
 10
227.452520
 20
-310.821070
 30
0.0
 10
225.321720
 20
-312.369190
 30
0.0
 10
222.490130
 20
-310.484600
 30
0.0
 10
219.731500
 20
-308.543410
 30
0.0
 10
217.497960
 20
-310.121930
 30
0.0
 10
218.406950
 20
-313.370310
 30
0.0
 10
219.238230
 20
-316.668570
 30
0.0
 10
217.067640
 20
-318.160380
 30
0.0
 10
214.286350
 20
-316.202320
 30
0.0
 10
211.579480
 20
-314.189580
 30
0.0
 10
209.305380
 20
-315.709090
 30
0.0
 10
210.129030
 20
-318.980150
 30
0.0
 10
210.873690
 20
-322.299040
 30
0.0
 10
208.664790
 20
-323.733520
 30
0.0
 10
205.935710
 20
-321.703330
 30
0.0
 10
203.282450
 20
-319.620420
 30
0.0
 10
200.969360
 20
-321.079880
 30
0.0
 10
201.707100
 20
-324.371380
 30
0.0
 10
202.364630
 20
-327.708630
 30
0.0
 10
200.118930
 20
-329.084790
 30
0.0
 10
197.443930
 20
-326.983850
 30
0.0
 10
194.846110
 20
-324.832210
 30
0.0
 10
192.495600
 20
-326.230610
 30
0.0
 10
193.146930
 20
-329.540300
 30
0.0
 10
193.716870
 20
-332.893620
 30
0.0
 10
191.435920
 20
-334.210530
 30
0.0
 10
188.816830
 20
-332.040280
 30
0.0
 10
186.276220
 20
-329.821370
 30
0.0
 10
183.889920
 20
-331.157770
 30
0.0
 10
184.454380
 20
-334.483370
 30
0.0
 10
184.936350
 20
-337.850460
 30
0.0
 10
182.621710
 20
-339.107210
 30
0.0
 10
180.060330
 20
-336.869150
 30
0.0
 10
177.578670
 20
-334.584490
 30
0.0
 10
175.158200
 20
-335.857960
 30
0.0
 10
175.635420
 20
-339.197200
 30
0.0
 10
176.029080
 20
-342.575760
 30
0.0
 10
173.682340
 20
-343.771480
 30
0.0
 10
171.180420
 20
-341.467140
 30
0.0
 10
168.759420
 20
-339.118310
 30
0.0
 10
166.306450
 20
-340.327980
 30
0.0
 10
166.696090
 20
-343.678570
 30
0.0
 10
167.001180
 20
-347.066270
 30
0.0
 10
164.623940
 20
-348.200150
 30
0.0
 10
162.183200
 20
-345.831110
 30
0.0
 10
159.824510
 20
-343.419710
 30
0.0
 10
157.340710
 20
-344.564750
 30
0.0
 10
157.642510
 20
-347.924390
 30
0.0
 10
157.858810
 20
-351.318920
 30
0.0
 10
155.452710
 20
-352.390180
 30
0.0
 10
153.074820
 20
-349.958060
 30
0.0
 10
150.780070
 20
-347.485740
 30
0.0
 10
148.267140
 20
-348.565380
 30
0.0
 10
148.480900
 20
-351.931770
 30
0.0
 10
148.608260
 20
-355.330790
 30
0.0
 10
146.174940
 20
-356.338700
 30
0.0
 10
143.861530
 20
-353.845170
 30
0.0
 10
141.632280
 20
-351.313630
 30
0.0
 10
139.091960
 20
-352.327110
 30
0.0
 10
139.217520
 20
-355.697940
 30
0.0
 10
139.255920
 20
-359.099140
 30
0.0
 10
136.797040
 20
-360.043010
 30
0.0
 10
134.549700
 20
-357.489770
 30
0.0
 10
132.387480
 20
-354.900740
 30
0.0
 10
129.821500
 20
-355.847380
 30
0.0
 10
129.858800
 20
-359.220340
 30
0.0
 10
129.808100
 20
-362.621370
 30
0.0
 10
127.325360
 20
-363.500560
 30
0.0
 10
125.145620
 20
-360.889370
 30
0.0
 10
123.051920
 20
-358.244620
 30
0.0
 10
120.462030
 20
-359.123770
 30
0.0
 10
120.411030
 20
-362.496550
 30
0.0
 10
120.271330
 20
-365.895090
 30
0.0
 10
117.766420
 20
-366.708980
 30
0.0
 10
115.655780
 20
-364.041630
 30
0.0
 10
113.632030
 20
-361.342980
 30
0.0
 10
111.020020
 20
-362.154030
 30
0.0
 10
110.880720
 20
-365.524320
 30
0.0
 10
110.652100
 20
-368.918040
 30
0.0
 10
108.126740
 20
-369.666080
 30
0.0
 10
106.086650
 20
-366.944390
 30
0.0
 10
104.134240
 20
-364.193690
 30
0.0
 10
101.501890
 20
-364.936090
 30
0.0
 10
101.274410
 20
-368.301580
 30
0.0
 10
100.957030
 20
-371.688150
 30
0.0
 10
98.412962
 20
-372.369830
 30
0.0
 10
96.444822
 20
-369.595670
 30
0.0
 10
94.565072
 20
-366.794810
 30
0.0
 10
91.914202
 20
-367.468040
 30
0.0
 10
91.598702
 20
-370.826430
 30
0.0
 10
91.192772
 20
-374.203530
 30
0.0
 10
88.631732
 20
-374.818380
 30
0.0
 10
86.736882
 20
-371.993640
 30
0.0
 10
84.931102
 20
-369.144540
 30
0.0
 10
82.263512
 20
-369.748150
 30
0.0
 10
81.860212
 20
-373.097120
 30
0.0
 10
81.366022
 20
-376.462440
 30
0.0
 10
78.789762
 20
-377.010040
 30
0.0
 10
76.969502
 20
-374.136670
 30
0.0
 10
75.238922
 20
-371.241270
 30
0.0
 10
72.556442
 20
-371.774850
 30
0.0
 10
72.065612
 20
-375.112120
 30
0.0
 10
71.483502
 20
-378.463350
 30
0.0
 10
68.893792
 20
-378.943320
 30
0.0
 10
67.149372
 20
-376.023290
 30
0.0
 10
65.495182
 20
-373.083580
 30
0.0
 10
62.799652
 20
-373.546760
 30
0.0
 10
62.221632
 20
-376.870030
 30
0.0
 10
61.551992
 20
-380.204870
 30
0.0
 10
58.950612
 20
-380.616890
 30
0.0
 10
57.283222
 20
-377.652200
 30
0.0
 10
55.706542
 20
-374.670190
 30
0.0
 10
52.999812
 20
-375.062650
 30
0.0
 10
52.335002
 20
-378.369660
 30
0.0
 10
51.578302
 20
-381.685830
 30
0.0
 10
48.967022
 20
-382.029610
 30
0.0
 10
47.377812
 20
-379.022280
 30
0.0
 10
45.879732
 20
-376.000030
 30
0.0
 10
43.163662
 20
-376.321500
 30
0.0
 10
42.412502
 20
-379.609970
 30
0.0
 10
41.569252
 20
-382.905190
 30
0.0
 10
38.949872
 20
-383.180500
 30
0.0
 10
37.439932
 20
-380.132600
 30
0.0
 10
36.021482
 20
-377.072170
 30
0.0
 10
33.297922
 20
-377.322430
 30
0.0
 10
32.460942
 20
-380.590110
 30
0.0
 10
31.531722
 20
-383.862130
 30
0.0
 10
28.906032
 20
-384.068780
 30
0.0
 10
27.476392
 20
-380.982400
 30
0.0
 10
26.138542
 20
-377.885890
 30
0.0
 10
23.409362
 20
-378.064770
 30
0.0
 10
22.487132
 20
-381.309420
 30
0.0
 10
21.472582
 20
-384.555990
 30
0.0
 10
18.842372
 20
-384.693830
 30
0.0
 10
17.494022
 20
-381.571090
 30
0.0
 10
16.237682
 20
-378.440620
 30
0.0
 10
13.504762
 20
-378.547990
 30
0.0
 10
12.497912
 20
-381.767390
 30
0.0
 10
11.398722
 20
-384.986300
 30
0.0
 10
8.765812
 20
-385.055200
 30
0.0
 10
7.499662
 20
-381.898230
 30
0.0
 10
6.325702
 20
-378.735940
 30
0.0
 10
3.590902
 20
-378.771740
 30
0.0
 10
2.500122
 20
-381.963680
 30
0.0
 10
1.317052
 20
-385.152710
 30
0.0
 10
-1.316768
 20
-385.152710
 30
0.0
 10
-2.499838
 20
-381.963680
 30
0.0
 10
-3.590618
 20
-378.771740
 30
0.0
 10
-6.325418
 20
-378.735940
 30
0.0
 10
-7.499378
 20
-381.898230
 30
0.0
 10
-8.765528
 20
-385.055200
 30
0.0
 10
-11.398438
 20
-384.986300
 30
0.0
 10
-12.497628
 20
-381.767390
 30
0.0
 10
-13.504478
 20
-378.547990
 30
0.0
 10
-16.237398
 20
-378.440620
 30
0.0
 10
-17.493738
 20
-381.571090
 30
0.0
 10
-18.842088
 20
-384.693830
 30
0.0
 10
-21.472298
 20
-384.555990
 30
0.0
 10
-22.486848
 20
-381.309420
 30
0.0
 10
-23.409078
 20
-378.064770
 30
0.0
 10
-26.138258
 20
-377.885890
 30
0.0
 10
-27.476108
 20
-380.982400
 30
0.0
 10
-28.905748
 20
-384.068780
 30
0.0
 10
-31.531438
 20
-383.862130
 30
0.0
 10
-32.460658
 20
-380.590110
 30
0.0
 10
-33.297638
 20
-377.322430
 30
0.0
 10
-36.021198
 20
-377.072170
 30
0.0
 10
-37.439648
 20
-380.132600
 30
0.0
 10
-38.949588
 20
-383.180500
 30
0.0
 10
-41.568968
 20
-382.905190
 30
0.0
 10
-42.412218
 20
-379.609970
 30
0.0
 10
-43.163378
 20
-376.321500
 30
0.0
 10
-45.879448
 20
-376.000030
 30
0.0
 10
-47.377528
 20
-379.022280
 30
0.0
 10
-48.966738
 20
-382.029610
 30
0.0
 10
-51.578018
 20
-381.685830
 30
0.0
 10
-52.334718
 20
-378.369660
 30
0.0
 10
-52.999528
 20
-375.062650
 30
0.0
 10
-55.706258
 20
-374.670190
 30
0.0
 10
-57.282938
 20
-377.652200
 30
0.0
 10
-58.950328
 20
-380.616890
 30
0.0
 10
-61.551708
 20
-380.204870
 30
0.0
 10
-62.221348
 20
-376.870030
 30
0.0
 10
-62.799368
 20
-373.546760
 30
0.0
 10
-65.494898
 20
-373.083580
 30
0.0
 10
-67.149088
 20
-376.023290
 30
0.0
 10
-68.893508
 20
-378.943320
 30
0.0
 10
-71.483218
 20
-378.463350
 30
0.0
 10
-72.065328
 20
-375.112120
 30
0.0
 10
-72.556158
 20
-371.774850
 30
0.0
 10
-75.238638
 20
-371.241270
 30
0.0
 10
-76.969218
 20
-374.136670
 30
0.0
 10
-78.789478
 20
-377.010040
 30
0.0
 10
-81.365738
 20
-376.462440
 30
0.0
 10
-81.859928
 20
-373.097120
 30
0.0
 10
-82.263228
 20
-369.748150
 30
0.0
 10
-84.930818
 20
-369.144540
 30
0.0
 10
-86.736598
 20
-371.993640
 30
0.0
 10
-88.631448
 20
-374.818380
 30
0.0
 10
-91.192488
 20
-374.203530
 30
0.0
 10
-91.598418
 20
-370.826430
 30
0.0
 10
-91.913918
 20
-367.468040
 30
0.0
 10
-94.564788
 20
-366.794810
 30
0.0
 10
-96.444538
 20
-369.595670
 30
0.0
 10
-98.412678
 20
-372.369830
 30
0.0
 10
-100.956750
 20
-371.688150
 30
0.0
 10
-101.274130
 20
-368.301580
 30
0.0
 10
-101.501610
 20
-364.936090
 30
0.0
 10
-104.133960
 20
-364.193690
 30
0.0
 10
-106.086370
 20
-366.944390
 30
0.0
 10
-108.126460
 20
-369.666080
 30
0.0
 10
-110.651820
 20
-368.918040
 30
0.0
 10
-110.880440
 20
-365.524320
 30
0.0
 10
-111.019740
 20
-362.154030
 30
0.0
 10
-113.631750
 20
-361.342980
 30
0.0
 10
-115.655500
 20
-364.041630
 30
0.0
 10
-117.766140
 20
-366.708980
 30
0.0
 10
-120.271050
 20
-365.895090
 30
0.0
 10
-120.410750
 20
-362.496550
 30
0.0
 10
-120.461750
 20
-359.123770
 30
0.0
 10
-123.051640
 20
-358.244620
 30
0.0
 10
-125.145340
 20
-360.889370
 30
0.0
 10
-127.325080
 20
-363.500560
 30
0.0
 10
-129.807820
 20
-362.621370
 30
0.0
 10
-129.858520
 20
-359.220340
 30
0.0
 10
-129.821220
 20
-355.847380
 30
0.0
 10
-132.387200
 20
-354.900740
 30
0.0
 10
-134.549420
 20
-357.489770
 30
0.0
 10
-136.796760
 20
-360.043010
 30
0.0
 10
-139.255640
 20
-359.099140
 30
0.0
 10
-139.217240
 20
-355.697940
 30
0.0
 10
-139.091680
 20
-352.327110
 30
0.0
 10
-141.632000
 20
-351.313630
 30
0.0
 10
-143.861250
 20
-353.845170
 30
0.0
 10
-146.174660
 20
-356.338700
 30
0.0
 10
-148.607980
 20
-355.330790
 30
0.0
 10
-148.480620
 20
-351.931770
 30
0.0
 10
-148.266860
 20
-348.565380
 30
0.0
 10
-150.779790
 20
-347.485740
 30
0.0
 10
-153.074540
 20
-349.958060
 30
0.0
 10
-155.452430
 20
-352.390180
 30
0.0
 10
-157.858530
 20
-351.318920
 30
0.0
 10
-157.642230
 20
-347.924390
 30
0.0
 10
-157.340430
 20
-344.564750
 30
0.0
 10
-159.824230
 20
-343.419710
 30
0.0
 10
-162.182920
 20
-345.831110
 30
0.0
 10
-164.623660
 20
-348.200150
 30
0.0
 10
-167.000900
 20
-347.066270
 30
0.0
 10
-166.695810
 20
-343.678570
 30
0.0
 10
-166.306170
 20
-340.327980
 30
0.0
 10
-168.759140
 20
-339.118310
 30
0.0
 10
-171.180140
 20
-341.467140
 30
0.0
 10
-173.682060
 20
-343.771480
 30
0.0
 10
-176.028800
 20
-342.575760
 30
0.0
 10
-175.635140
 20
-339.197200
 30
0.0
 10
-175.157920
 20
-335.857960
 30
0.0
 10
-177.578390
 20
-334.584490
 30
0.0
 10
-180.060050
 20
-336.869150
 30
0.0
 10
-182.621430
 20
-339.107210
 30
0.0
 10
-184.936070
 20
-337.850460
 30
0.0
 10
-184.454100
 20
-334.483370
 30
0.0
 10
-183.889640
 20
-331.157770
 30
0.0
 10
-186.275940
 20
-329.821370
 30
0.0
 10
-188.816550
 20
-332.040280
 30
0.0
 10
-191.435640
 20
-334.210530
 30
0.0
 10
-193.716590
 20
-332.893620
 30
0.0
 10
-193.146650
 20
-329.540300
 30
0.0
 10
-192.495320
 20
-326.230610
 30
0.0
 10
-194.845830
 20
-324.832210
 30
0.0
 10
-197.443650
 20
-326.983850
 30
0.0
 10
-200.118650
 20
-329.084790
 30
0.0
 10
-202.364350
 20
-327.708630
 30
0.0
 10
-201.706820
 20
-324.371380
 30
0.0
 10
-200.969080
 20
-321.079880
 30
0.0
 10
-203.282170
 20
-319.620420
 30
0.0
 10
-205.935430
 20
-321.703330
 30
0.0
 10
-208.664510
 20
-323.733520
 30
0.0
 10
-210.873410
 20
-322.299040
 30
0.0
 10
-210.128750
 20
-318.980150
 30
0.0
 10
-209.305100
 20
-315.709090
 30
0.0
 10
-211.579200
 20
-314.189580
 30
0.0
 10
-214.286070
 20
-316.202320
 30
0.0
 10
-217.067360
 20
-318.160380
 30
0.0
 10
-219.237950
 20
-316.668570
 30
0.0
 10
-218.406670
 20
-313.370310
 30
0.0
 10
-217.497680
 20
-310.121930
 30
0.0
 10
-219.731220
 20
-308.543410
 30
0.0
 10
-222.489850
 20
-310.484600
 30
0.0
 10
-225.321440
 20
-312.369190
 30
0.0
 10
-227.452240
 20
-310.821070
 30
0.0
 10
-226.534910
 20
-307.545700
 30
0.0
 10
-225.541190
 20
-304.322220
 30
0.0
 10
-227.732650
 20
-302.685790
 30
0.0
 10
-230.541150
 20
-304.554100
 30
0.0
 10
-233.421100
 20
-306.363910
 30
0.0
 10
-235.510650
 20
-304.760550
 30
0.0
 10
-234.507890
 20
-301.510310
 30
0.0
 10
-233.430130
 20
-298.313950
 30
0.0
 10
-235.578000
 20
-296.620710
 30
0.0
 10
-238.434440
 20
-298.414860
 30
0.0
 10
-241.360790
 20
-300.148670
 30
0.0
 10
-243.407640
 20
-298.491160
 30
0.0
 10
-242.320140
 20
-295.268280
 30
0.0
 10
-241.159090
 20
-292.101230
 30
0.0
 10
-243.261890
 20
-290.352350
 30
0.0
 10
-246.164330
 20
-292.071110
 30
0.0
 10
-249.135050
 20
-293.727720
 30
0.0
 10
-251.137820
 20
-292.017200
 30
0.0
 10
-249.966330
 20
-288.823890
 30
0.0
 10
-248.722770
 20
-285.688320
 30
0.0
 10
-250.779070
 20
-283.884990
 30
0.0
 10
-253.725500
 20
-285.527190
 30
0.0
 10
-256.738570
 20
-287.105470
 30
0.0
 10
-258.695880
 20
-285.343100
 30
0.0
 10
-257.441200
 20
-282.181560
 30
0.0
 10
-256.115980
 20
-279.079610
 30
0.0
 10
-258.124380
 20
-277.223070
 30
0.0
 10
-261.112790
 20
-278.787580
 30
0.0
 10
-264.166140
 20
-280.286440
 30
0.0
 10
-266.076640
 20
-278.473450
 30
0.0
 10
-264.739630
 20
-275.345830
 30
0.0
 10
-263.333670
 20
-272.279640
 30
0.0
 10
-265.292780
 20
-270.371160
 30
0.0
 10
-268.321120
 20
-271.856900
 30
0.0
 10
-271.412660
 20
-273.275330
 30
0.0
 10
-273.275050
 20
-271.412940
 30
0.0
 10
-271.856620
 20
-268.321400
 30
0.0
 10
-270.370880
 20
-265.293060
 30
0.0
 10
-272.279360
 20
-263.333950
 30
0.0
 10
-275.345550
 20
-264.739910
 30
0.0
 10
-278.473170
 20
-266.076920
 30
0.0
 10
-280.286160
 20
-264.166420
 30
0.0
 10
-278.787300
 20
-261.113070
 30
0.0
 10
-277.222790
 20
-258.124660
 30
0.0
 10
-279.079330
 20
-256.116260
 30
0.0
 10
-282.181280
 20
-257.441480
 30
0.0
 10
-285.342820
 20
-258.696160
 30
0.0
 10
-287.105190
 20
-256.738850
 30
0.0
 10
-285.526910
 20
-253.725780
 30
0.0
 10
-283.884710
 20
-250.779350
 30
0.0
 10
-285.688040
 20
-248.723050
 30
0.0
 10
-288.823610
 20
-249.966610
 30
0.0
 10
-292.016920
 20
-251.138100
 30
0.0
 10
-293.727440
 20
-249.135330
 30
0.0
 10
-292.070830
 20
-246.164610
 30
0.0
 10
-290.352070
 20
-243.262170
 30
0.0
 10
-292.100950
 20
-241.159370
 30
0.0
 10
-295.268000
 20
-242.320420
 30
0.0
 10
-298.490880
 20
-243.407920
 30
0.0
 10
-300.148390
 20
-241.361070
 30
0.0
 10
-298.414580
 20
-238.434720
 30
0.0
 10
-296.620430
 20
-235.578280
 30
0.0
 10
-298.313670
 20
-233.430410
 30
0.0
 10
-301.510030
 20
-234.508170
 30
0.0
 10
-304.760270
 20
-235.510930
 30
0.0
 10
-306.363630
 20
-233.421380
 30
0.0
 10
-304.553820
 20
-230.541430
 30
0.0
 10
-302.685510
 20
-227.732930
 30
0.0
 10
-304.321940
 20
-225.541470
 30
0.0
 10
-307.545420
 20
-226.535190
 30
0.0
 10
-310.820790
 20
-227.452520
 30
0.0
 10
-312.368910
 20
-225.321720
 30
0.0
 10
-310.484320
 20
-222.490130
 30
0.0
 10
-308.543130
 20
-219.731500
 30
0.0
 10
-310.121650
 20
-217.497960
 30
0.0
 10
-313.370030
 20
-218.406950
 30
0.0
 10
-316.668290
 20
-219.238230
 30
0.0
 10
-318.160100
 20
-217.067640
 30
0.0
 10
-316.202040
 20
-214.286350
 30
0.0
 10
-314.189300
 20
-211.579480
 30
0.0
 10
-315.708810
 20
-209.305380
 30
0.0
 10
-318.979870
 20
-210.129030
 30
0.0
 10
-322.298760
 20
-210.873690
 30
0.0
 10
-323.733240
 20
-208.664790
 30
0.0
 10
-321.703050
 20
-205.935710
 30
0.0
 10
-319.620140
 20
-203.282450
 30
0.0
 10
-321.079600
 20
-200.969360
 30
0.0
 10
-324.371100
 20
-201.707100
 30
0.0
 10
-327.708350
 20
-202.364630
 30
0.0
 10
-329.084510
 20
-200.118930
 30
0.0
 10
-326.983570
 20
-197.443930
 30
0.0
 10
-324.831930
 20
-194.846110
 30
0.0
 10
-326.230330
 20
-192.495600
 30
0.0
 10
-329.540020
 20
-193.146930
 30
0.0
 10
-332.893340
 20
-193.716870
 30
0.0
 10
-334.210250
 20
-191.435920
 30
0.0
 10
-332.040000
 20
-188.816830
 30
0.0
 10
-329.821090
 20
-186.276220
 30
0.0
 10
-331.157490
 20
-183.889920
 30
0.0
 10
-334.483090
 20
-184.454380
 30
0.0
 10
-337.850180
 20
-184.936350
 30
0.0
 10
-339.106930
 20
-182.621710
 30
0.0
 10
-336.868870
 20
-180.060330
 30
0.0
 10
-334.584210
 20
-177.578670
 30
0.0
 10
-335.857680
 20
-175.158200
 30
0.0
 10
-339.196920
 20
-175.635420
 30
0.0
 10
-342.575480
 20
-176.029080
 30
0.0
 10
-343.771200
 20
-173.682340
 30
0.0
 10
-341.466860
 20
-171.180420
 30
0.0
 10
-339.118030
 20
-168.759420
 30
0.0
 10
-340.327700
 20
-166.306450
 30
0.0
 10
-343.678290
 20
-166.696090
 30
0.0
 10
-347.065990
 20
-167.001180
 30
0.0
 10
-348.199870
 20
-164.623940
 30
0.0
 10
-345.830830
 20
-162.183200
 30
0.0
 10
-343.419430
 20
-159.824510
 30
0.0
 10
-344.564470
 20
-157.340710
 30
0.0
 10
-347.924110
 20
-157.642510
 30
0.0
 10
-351.318640
 20
-157.858810
 30
0.0
 10
-352.389900
 20
-155.452710
 30
0.0
 10
-349.957780
 20
-153.074820
 30
0.0
 10
-347.485460
 20
-150.780070
 30
0.0
 10
-348.565100
 20
-148.267140
 30
0.0
 10
-351.931490
 20
-148.480900
 30
0.0
 10
-355.330510
 20
-148.608260
 30
0.0
 10
-356.338420
 20
-146.174940
 30
0.0
 10
-353.844890
 20
-143.861530
 30
0.0
 10
-351.313350
 20
-141.632280
 30
0.0
 10
-352.326830
 20
-139.091960
 30
0.0
 10
-355.697660
 20
-139.217520
 30
0.0
 10
-359.098860
 20
-139.255920
 30
0.0
 10
-360.042730
 20
-136.797040
 30
0.0
 10
-357.489490
 20
-134.549700
 30
0.0
 10
-354.900460
 20
-132.387480
 30
0.0
 10
-355.847100
 20
-129.821500
 30
0.0
 10
-359.220060
 20
-129.858800
 30
0.0
 10
-362.621090
 20
-129.808100
 30
0.0
 10
-363.500280
 20
-127.325360
 30
0.0
 10
-360.889090
 20
-125.145620
 30
0.0
 10
-358.244340
 20
-123.051920
 30
0.0
 10
-359.123490
 20
-120.462030
 30
0.0
 10
-362.496270
 20
-120.411030
 30
0.0
 10
-365.894810
 20
-120.271330
 30
0.0
 10
-366.708700
 20
-117.766420
 30
0.0
 10
-364.041350
 20
-115.655780
 30
0.0
 10
-361.342700
 20
-113.632030
 30
0.0
 10
-362.153750
 20
-111.020020
 30
0.0
 10
-365.524040
 20
-110.880720
 30
0.0
 10
-368.917760
 20
-110.652100
 30
0.0
 10
-369.665800
 20
-108.126740
 30
0.0
 10
-366.944110
 20
-106.086650
 30
0.0
 10
-364.193410
 20
-104.134240
 30
0.0
 10
-364.935810
 20
-101.501890
 30
0.0
 10
-368.301300
 20
-101.274410
 30
0.0
 10
-371.687870
 20
-100.957030
 30
0.0
 10
-372.369550
 20
-98.412960
 30
0.0
 10
-369.595390
 20
-96.444820
 30
0.0
 10
-366.794530
 20
-94.565070
 30
0.0
 10
-367.467760
 20
-91.914200
 30
0.0
 10
-370.826150
 20
-91.598700
 30
0.0
 10
-374.203250
 20
-91.192770
 30
0.0
 10
-374.818100
 20
-88.631730
 30
0.0
 10
-371.993360
 20
-86.736880
 30
0.0
 10
-369.144260
 20
-84.931100
 30
0.0
 10
-369.747870
 20
-82.263510
 30
0.0
 10
-373.096840
 20
-81.860210
 30
0.0
 10
-376.462160
 20
-81.366020
 30
0.0
 10
-377.009760
 20
-78.789760
 30
0.0
 10
-374.136390
 20
-76.969500
 30
0.0
 10
-371.240990
 20
-75.238920
 30
0.0
 10
-371.774570
 20
-72.556440
 30
0.0
 10
-375.111840
 20
-72.065610
 30
0.0
 10
-378.463070
 20
-71.483500
 30
0.0
 10
-378.943040
 20
-68.893790
 30
0.0
 10
-376.023010
 20
-67.149370
 30
0.0
 10
-373.083300
 20
-65.495180
 30
0.0
 10
-373.546480
 20
-62.799650
 30
0.0
 10
-376.869750
 20
-62.221630
 30
0.0
 10
-380.204590
 20
-61.551990
 30
0.0
 10
-380.616610
 20
-58.950610
 30
0.0
 10
-377.651920
 20
-57.283220
 30
0.0
 10
-374.669910
 20
-55.706540
 30
0.0
 10
-375.062370
 20
-52.999810
 30
0.0
 10
-378.369380
 20
-52.335000
 30
0.0
 10
-381.685550
 20
-51.578300
 30
0.0
 10
-382.029330
 20
-48.967020
 30
0.0
 10
-379.022000
 20
-47.377810
 30
0.0
 10
-375.999750
 20
-45.879730
 30
0.0
 10
-376.321220
 20
-43.163660
 30
0.0
 10
-379.609690
 20
-42.412500
 30
0.0
 10
-382.904910
 20
-41.569250
 30
0.0
 10
-383.180220
 20
-38.949870
 30
0.0
 10
-380.132320
 20
-37.439930
 30
0.0
 10
-377.071890
 20
-36.021480
 30
0.0
 10
-377.322150
 20
-33.297920
 30
0.0
 10
-380.589830
 20
-32.460940
 30
0.0
 10
-383.861850
 20
-31.531720
 30
0.0
 10
-384.068500
 20
-28.906030
 30
0.0
 10
-380.982120
 20
-27.476390
 30
0.0
 10
-377.885610
 20
-26.138540
 30
0.0
 10
-378.064490
 20
-23.409360
 30
0.0
 10
-381.309140
 20
-22.487130
 30
0.0
 10
-384.555710
 20
-21.472580
 30
0.0
 10
-384.693550
 20
-18.842370
 30
0.0
 10
-381.570810
 20
-17.494020
 30
0.0
 10
-378.440340
 20
-16.237680
 30
0.0
 10
-378.547710
 20
-13.504760
 30
0.0
 10
-381.767110
 20
-12.497910
 30
0.0
 10
-384.986020
 20
-11.398720
 30
0.0
 10
-385.054920
 20
-8.765810
 30
0.0
 10
-381.897950
 20
-7.499660
 30
0.0
 10
-378.735660
 20
-6.325700
 30
0.0
 10
-378.771460
 20
-3.590900
 30
0.0
 10
-381.963400
 20
-2.500120
 30
0.0
 10
-385.152430
 20
-1.317050
 30
0.0
 10
-385.152430
 20
1.316770
 30
0.0
 10
-381.963400
 20
2.499840
 30
0.0
 10
-378.771460
 20
3.590620
 30
0.0
 10
-378.735660
 20
6.325420
 30
0.0
 10
-381.897950
 20
7.499380
 30
0.0
 10
-385.054920
 20
8.765530
 30
0.0
 10
-384.986020
 20
11.398440
 30
0.0
 10
-381.767110
 20
12.497630
 30
0.0
 10
-378.547710
 20
13.504480
 30
0.0
 10
-378.440340
 20
16.237400
 30
0.0
 10
-381.570810
 20
17.493740
 30
0.0
 10
-384.693550
 20
18.842090
 30
0.0
 10
-384.555710
 20
21.472300
 30
0.0
 10
-381.309140
 20
22.486850
 30
0.0
 10
-378.064490
 20
23.409080
 30
0.0
 10
-377.885610
 20
26.138260
 30
0.0
 10
-380.982120
 20
27.476110
 30
0.0
 10
-384.068500
 20
28.905750
 30
0.0
 10
-383.861850
 20
31.531440
 30
0.0
 10
-380.589830
 20
32.460660
 30
0.0
 10
-377.322150
 20
33.297640
 30
0.0
 10
-377.071890
 20
36.021200
 30
0.0
 10
-380.132320
 20
37.439650
 30
0.0
 10
-383.180220
 20
38.949590
 30
0.0
 10
-382.904910
 20
41.568970
 30
0.0
 10
-379.609690
 20
42.412220
 30
0.0
 10
-376.321220
 20
43.163380
 30
0.0
 10
-375.999750
 20
45.879450
 30
0.0
 10
-379.022000
 20
47.377530
 30
0.0
 10
-382.029330
 20
48.966740
 30
0.0
 10
-381.685550
 20
51.578020
 30
0.0
 10
-378.369380
 20
52.334720
 30
0.0
 10
-375.062370
 20
52.999530
 30
0.0
 10
-374.669910
 20
55.706260
 30
0.0
 10
-377.651920
 20
57.282940
 30
0.0
 10
-380.616610
 20
58.950330
 30
0.0
 10
-380.204590
 20
61.551710
 30
0.0
 10
-376.869750
 20
62.221350
 30
0.0
 10
-373.546480
 20
62.799370
 30
0.0
 10
-373.083300
 20
65.494900
 30
0.0
 10
-376.023010
 20
67.149090
 30
0.0
 10
-378.943040
 20
68.893510
 30
0.0
 10
-378.463070
 20
71.483220
 30
0.0
 10
-375.111840
 20
72.065330
 30
0.0
 10
-371.774570
 20
72.556160
 30
0.0
 10
-371.240990
 20
75.238640
 30
0.0
 10
-374.136390
 20
76.969220
 30
0.0
 10
-377.009760
 20
78.789480
 30
0.0
 10
-376.462160
 20
81.365740
 30
0.0
 10
-373.096840
 20
81.859930
 30
0.0
 10
-369.747870
 20
82.263230
 30
0.0
 10
-369.144260
 20
84.930820
 30
0.0
 10
-371.993360
 20
86.736600
 30
0.0
 10
-374.818100
 20
88.631450
 30
0.0
 10
-374.203250
 20
91.192490
 30
0.0
 10
-370.826150
 20
91.598420
 30
0.0
 10
-367.467760
 20
91.913920
 30
0.0
 10
-366.794530
 20
94.564790
 30
0.0
 10
-369.595390
 20
96.444540
 30
0.0
 10
-372.369550
 20
98.412680
 30
0.0
 10
-371.687870
 20
100.956750
 30
0.0
 10
-368.301300
 20
101.274130
 30
0.0
 10
-364.935810
 20
101.501610
 30
0.0
 10
-364.193410
 20
104.133960
 30
0.0
 10
-366.944110
 20
106.086370
 30
0.0
 10
-369.665800
 20
108.126460
 30
0.0
 10
-368.917760
 20
110.651820
 30
0.0
 10
-365.524040
 20
110.880440
 30
0.0
 10
-362.153750
 20
111.019740
 30
0.0
 10
-361.342700
 20
113.631750
 30
0.0
 10
-364.041350
 20
115.655500
 30
0.0
 10
-366.708700
 20
117.766140
 30
0.0
 10
-365.894810
 20
120.271050
 30
0.0
 10
-362.496270
 20
120.410750
 30
0.0
 10
-359.123490
 20
120.461750
 30
0.0
 10
-358.244340
 20
123.051640
 30
0.0
 10
-360.889090
 20
125.145340
 30
0.0
 10
-363.500280
 20
127.325080
 30
0.0
 10
-362.621090
 20
129.807820
 30
0.0
 10
-359.220060
 20
129.858520
 30
0.0
 10
-355.847100
 20
129.821220
 30
0.0
 10
-354.900460
 20
132.387200
 30
0.0
 10
-357.489490
 20
134.549420
 30
0.0
 10
-360.042730
 20
136.796760
 30
0.0
 10
-359.098860
 20
139.255640
 30
0.0
 10
-355.697660
 20
139.217240
 30
0.0
 10
-352.326830
 20
139.091680
 30
0.0
 10
-351.313350
 20
141.632000
 30
0.0
 10
-353.844890
 20
143.861250
 30
0.0
 10
-356.338420
 20
146.174660
 30
0.0
 10
-355.330510
 20
148.607980
 30
0.0
 10
-351.931490
 20
148.480620
 30
0.0
 10
-348.565100
 20
148.266860
 30
0.0
 10
-347.485460
 20
150.779790
 30
0.0
 10
-349.957780
 20
153.074540
 30
0.0
 10
-352.389900
 20
155.452430
 30
0.0
 10
-351.318640
 20
157.858530
 30
0.0
 10
-347.924110
 20
157.642230
 30
0.0
 10
-344.564470
 20
157.340430
 30
0.0
 10
-343.419430
 20
159.824230
 30
0.0
 10
-345.830830
 20
162.182920
 30
0.0
 10
-348.199870
 20
164.623660
 30
0.0
 10
-347.065990
 20
167.000900
 30
0.0
 10
-343.678290
 20
166.695810
 30
0.0
 10
-340.327700
 20
166.306170
 30
0.0
 10
-339.118030
 20
168.759140
 30
0.0
 10
-341.466860
 20
171.180140
 30
0.0
 10
-343.771200
 20
173.682060
 30
0.0
 10
-342.575480
 20
176.028800
 30
0.0
 10
-339.196920
 20
175.635140
 30
0.0
 10
-335.857680
 20
175.157920
 30
0.0
 10
-334.584210
 20
177.578390
 30
0.0
 10
-336.868870
 20
180.060050
 30
0.0
 10
-339.106930
 20
182.621430
 30
0.0
 10
-337.850180
 20
184.936070
 30
0.0
 10
-334.483090
 20
184.454100
 30
0.0
 10
-331.157490
 20
183.889640
 30
0.0
 10
-329.821090
 20
186.275940
 30
0.0
 10
-332.040000
 20
188.816550
 30
0.0
 10
-334.210250
 20
191.435640
 30
0.0
 10
-332.893340
 20
193.716590
 30
0.0
 10
-329.540020
 20
193.146650
 30
0.0
 10
-326.230330
 20
192.495320
 30
0.0
 10
-324.831930
 20
194.845830
 30
0.0
 10
-326.983570
 20
197.443650
 30
0.0
 10
-329.084510
 20
200.118650
 30
0.0
 10
-327.708350
 20
202.364350
 30
0.0
 10
-324.371100
 20
201.706820
 30
0.0
 10
-321.079600
 20
200.969080
 30
0.0
 10
-319.620140
 20
203.282170
 30
0.0
 10
-321.703050
 20
205.935430
 30
0.0
 10
-323.733240
 20
208.664510
 30
0.0
 10
-322.298760
 20
210.873410
 30
0.0
 10
-318.979870
 20
210.128750
 30
0.0
 10
-315.708810
 20
209.305100
 30
0.0
 10
-314.189300
 20
211.579200
 30
0.0
 10
-316.202040
 20
214.286070
 30
0.0
 10
-318.160100
 20
217.067360
 30
0.0
 10
-316.668290
 20
219.237950
 30
0.0
 10
-313.370030
 20
218.406670
 30
0.0
 10
-310.121650
 20
217.497680
 30
0.0
 10
-308.543130
 20
219.731220
 30
0.0
 10
-310.484320
 20
222.489850
 30
0.0
 10
-312.368910
 20
225.321440
 30
0.0
 10
-310.820790
 20
227.452240
 30
0.0
 10
-307.545420
 20
226.534910
 30
0.0
 10
-304.321940
 20
225.541190
 30
0.0
 10
-302.685510
 20
227.732650
 30
0.0
 10
-304.553820
 20
230.541150
 30
0.0
 10
-306.363630
 20
233.421100
 30
0.0
 10
-304.760270
 20
235.510650
 30
0.0
 10
-301.510030
 20
234.507890
 30
0.0
 10
-298.313670
 20
233.430130
 30
0.0
 10
-296.620430
 20
235.578000
 30
0.0
 10
-298.414580
 20
238.434440
 30
0.0
 10
-300.148390
 20
241.360790
 30
0.0
 10
-298.490880
 20
243.407640
 30
0.0
 10
-295.268000
 20
242.320140
 30
0.0
 10
-292.100950
 20
241.159090
 30
0.0
 10
-290.352070
 20
243.261890
 30
0.0
 10
-292.070830
 20
246.164330
 30
0.0
 10
-293.727440
 20
249.135050
 30
0.0
 10
-292.016920
 20
251.137820
 30
0.0
 10
-288.823610
 20
249.966330
 30
0.0
 10
-285.688040
 20
248.722770
 30
0.0
 10
-283.884710
 20
250.779070
 30
0.0
 10
-285.526910
 20
253.725500
 30
0.0
 10
-287.105190
 20
256.738570
 30
0.0
 10
-285.342820
 20
258.695880
 30
0.0
 10
-282.181280
 20
257.441200
 30
0.0
 10
-279.079330
 20
256.115980
 30
0.0
 10
-277.222790
 20
258.124380
 30
0.0
 10
-278.787300
 20
261.112790
 30
0.0
 10
-280.286160
 20
264.166140
 30
0.0
 10
-278.473170
 20
266.076640
 30
0.0
 10
-275.345550
 20
264.739630
 30
0.0
 10
-272.279360
 20
263.333670
 30
0.0
 10
-270.370880
 20
265.292780
 30
0.0
 10
-271.856620
 20
268.321120
 30
0.0
 10
-273.275050
 20
271.412660
 30
0.0
 10
-271.412660
 20
273.275050
 30
0.0
 10
-268.321120
 20
271.856620
 30
0.0
 10
-265.292780
 20
270.370880
 30
0.0
 10
-263.333670
 20
272.279360
 30
0.0
 10
-264.739630
 20
275.345550
 30
0.0
 10
-266.076640
 20
278.473170
 30
0.0
 10
-264.166140
 20
280.286160
 30
0.0
 10
-261.112790
 20
278.787300
 30
0.0
 10
-258.124380
 20
277.222790
 30
0.0
 10
-256.115980
 20
279.079330
 30
0.0
 10
-257.441200
 20
282.181280
 30
0.0
 10
-258.695880
 20
285.342820
 30
0.0
 10
-256.738570
 20
287.105190
 30
0.0
 10
-253.725500
 20
285.526910
 30
0.0
 10
-250.779070
 20
283.884710
 30
0.0
 10
-248.722770
 20
285.688040
 30
0.0
 10
-249.966330
 20
288.823610
 30
0.0
 10
-251.137820
 20
292.016920
 30
0.0
 10
-249.135050
 20
293.727440
 30
0.0
 10
-246.164330
 20
292.070830
 30
0.0
 10
-243.261890
 20
290.352070
 30
0.0
 10
-241.159090
 20
292.100950
 30
0.0
 10
-242.320140
 20
295.268000
 30
0.0
 10
-243.407640
 20
298.490880
 30
0.0
 10
-241.360790
 20
300.148390
 30
0.0
 10
-238.434440
 20
298.414580
 30
0.0
 10
-235.578000
 20
296.620430
 30
0.0
 10
-233.430130
 20
298.313670
 30
0.0
 10
-234.507890
 20
301.510030
 30
0.0
 10
-235.510650
 20
304.760270
 30
0.0
 10
-233.421100
 20
306.363630
 30
0.0
 10
-230.541150
 20
304.553820
 30
0.0
 10
-227.732650
 20
302.685510
 30
0.0
 10
-225.541190
 20
304.321940
 30
0.0
 10
-226.534910
 20
307.545420
 30
0.0
 10
-227.452240
 20
310.820790
 30
0.0
 10
-225.321440
 20
312.368910
 30
0.0
 10
-222.489850
 20
310.484320
 30
0.0
 10
-219.731220
 20
308.543130
 30
0.0
 10
-217.497680
 20
310.121650
 30
0.0
 10
-218.406670
 20
313.370030
 30
0.0
 10
-219.237950
 20
316.668290
 30
0.0
 10
-217.067360
 20
318.160100
 30
0.0
 10
-214.286070
 20
316.202040
 30
0.0
 10
-211.579200
 20
314.189300
 30
0.0
 10
-209.305100
 20
315.708810
 30
0.0
 10
-210.128750
 20
318.979870
 30
0.0
 10
-210.873410
 20
322.298760
 30
0.0
 10
-208.664510
 20
323.733240
 30
0.0
 10
-205.935430
 20
321.703050
 30
0.0
 10
-203.282170
 20
319.620140
 30
0.0
 10
-200.969080
 20
321.079600
 30
0.0
 10
-201.706820
 20
324.371100
 30
0.0
 10
-202.364350
 20
327.708350
 30
0.0
 10
-200.118650
 20
329.084510
 30
0.0
 10
-197.443650
 20
326.983570
 30
0.0
 10
-194.845830
 20
324.831930
 30
0.0
 10
-192.495320
 20
326.230330
 30
0.0
 10
-193.146650
 20
329.540020
 30
0.0
 10
-193.716590
 20
332.893340
 30
0.0
 10
-191.435640
 20
334.210250
 30
0.0
 10
-188.816550
 20
332.040000
 30
0.0
 10
-186.275940
 20
329.821090
 30
0.0
 10
-183.889640
 20
331.157490
 30
0.0
 10
-184.454100
 20
334.483090
 30
0.0
 10
-184.936070
 20
337.850180
 30
0.0
 10
-182.621430
 20
339.106930
 30
0.0
 10
-180.060050
 20
336.868870
 30
0.0
 10
-177.578390
 20
334.584210
 30
0.0
 10
-175.157920
 20
335.857680
 30
0.0
 10
-175.635140
 20
339.196920
 30
0.0
 10
-176.028800
 20
342.575480
 30
0.0
 10
-173.682060
 20
343.771200
 30
0.0
 10
-171.180140
 20
341.466860
 30
0.0
 10
-168.759140
 20
339.118030
 30
0.0
 10
-166.306170
 20
340.327700
 30
0.0
 10
-166.695810
 20
343.678290
 30
0.0
 10
-167.000900
 20
347.065990
 30
0.0
 10
-164.623660
 20
348.199870
 30
0.0
 10
-162.182920
 20
345.830830
 30
0.0
 10
-159.824230
 20
343.419430
 30
0.0
 10
-157.340430
 20
344.564470
 30
0.0
 10
-157.642230
 20
347.924110
 30
0.0
 10
-157.858530
 20
351.318640
 30
0.0
 10
-155.452430
 20
352.389900
 30
0.0
 10
-153.074540
 20
349.957780
 30
0.0
 10
-150.779790
 20
347.485460
 30
0.0
 10
-148.266860
 20
348.565100
 30
0.0
 10
-148.480620
 20
351.931490
 30
0.0
 10
-148.607980
 20
355.330510
 30
0.0
 10
-146.174660
 20
356.338420
 30
0.0
 10
-143.861250
 20
353.844890
 30
0.0
 10
-141.632000
 20
351.313350
 30
0.0
 10
-139.091680
 20
352.326830
 30
0.0
 10
-139.217240
 20
355.697660
 30
0.0
 10
-139.255640
 20
359.098860
 30
0.0
 10
-136.796760
 20
360.042730
 30
0.0
 10
-134.549420
 20
357.489490
 30
0.0
 10
-132.387200
 20
354.900460
 30
0.0
 10
-129.821220
 20
355.847100
 30
0.0
 10
-129.858520
 20
359.220060
 30
0.0
 10
-129.807820
 20
362.621090
 30
0.0
 10
-127.325080
 20
363.500280
 30
0.0
 10
-125.145340
 20
360.889090
 30
0.0
 10
-123.051640
 20
358.244340
 30
0.0
 10
-120.461750
 20
359.123490
 30
0.0
 10
-120.410750
 20
362.496270
 30
0.0
 10
-120.271050
 20
365.894810
 30
0.0
 10
-117.766140
 20
366.708700
 30
0.0
 10
-115.655500
 20
364.041350
 30
0.0
 10
-113.631750
 20
361.342700
 30
0.0
 10
-111.019740
 20
362.153750
 30
0.0
 10
-110.880440
 20
365.524040
 30
0.0
 10
-110.651820
 20
368.917760
 30
0.0
 10
-108.126460
 20
369.665800
 30
0.0
 10
-106.086370
 20
366.944110
 30
0.0
 10
-104.133960
 20
364.193410
 30
0.0
 10
-101.501610
 20
364.935810
 30
0.0
 10
-101.274130
 20
368.301300
 30
0.0
 10
-100.956750
 20
371.687870
 30
0.0
 10
-98.412678
 20
372.369550
 30
0.0
 10
-96.444538
 20
369.595390
 30
0.0
 10
-94.564788
 20
366.794530
 30
0.0
 10
-91.913918
 20
367.467760
 30
0.0
 10
-91.598418
 20
370.826150
 30
0.0
 10
-91.192488
 20
374.203250
 30
0.0
 10
-88.631448
 20
374.818100
 30
0.0
 10
-86.736598
 20
371.993360
 30
0.0
 10
-84.930818
 20
369.144260
 30
0.0
 10
-82.263228
 20
369.747870
 30
0.0
 10
-81.859928
 20
373.096840
 30
0.0
 10
-81.365738
 20
376.462160
 30
0.0
 10
-78.789478
 20
377.009760
 30
0.0
 10
-76.969218
 20
374.136390
 30
0.0
 10
-75.238638
 20
371.240990
 30
0.0
 10
-72.556158
 20
371.774570
 30
0.0
 10
-72.065328
 20
375.111840
 30
0.0
 10
-71.483218
 20
378.463070
 30
0.0
 10
-68.893508
 20
378.943040
 30
0.0
 10
-67.149088
 20
376.023010
 30
0.0
 10
-65.494898
 20
373.083300
 30
0.0
 10
-62.799368
 20
373.546480
 30
0.0
 10
-62.221348
 20
376.869750
 30
0.0
 10
-61.551708
 20
380.204590
 30
0.0
 10
-58.950328
 20
380.616610
 30
0.0
 10
-57.282938
 20
377.651920
 30
0.0
 10
-55.706258
 20
374.669910
 30
0.0
 10
-52.999528
 20
375.062370
 30
0.0
 10
-52.334718
 20
378.369380
 30
0.0
 10
-51.578018
 20
381.685550
 30
0.0
 10
-48.966738
 20
382.029330
 30
0.0
 10
-47.377528
 20
379.022000
 30
0.0
 10
-45.879448
 20
375.999750
 30
0.0
 10
-43.163378
 20
376.321220
 30
0.0
 10
-42.412218
 20
379.609690
 30
0.0
 10
-41.568968
 20
382.904910
 30
0.0
 10
-38.949588
 20
383.180220
 30
0.0
 10
-37.439648
 20
380.132320
 30
0.0
 10
-36.021198
 20
377.071890
 30
0.0
 10
-33.297638
 20
377.322150
 30
0.0
 10
-32.460658
 20
380.589830
 30
0.0
 10
-31.531438
 20
383.861850
 30
0.0
 10
-28.905748
 20
384.068500
 30
0.0
 10
-27.476108
 20
380.982120
 30
0.0
 10
-26.138258
 20
377.885610
 30
0.0
 10
-23.409078
 20
378.064490
 30
0.0
 10
-22.486848
 20
381.309140
 30
0.0
 10
-21.472298
 20
384.555710
 30
0.0
 10
-18.842088
 20
384.693550
 30
0.0
 10
-17.493738
 20
381.570810
 30
0.0
 10
-16.237398
 20
378.440340
 30
0.0
 10
-13.504478
 20
378.547710
 30
0.0
 10
-12.497628
 20
381.767110
 30
0.0
 10
-11.398438
 20
384.986020
 30
0.0
 10
-8.765528
 20
385.054920
 30
0.0
 10
-7.499378
 20
381.897950
 30
0.0
 10
-6.325418
 20
378.735660
 30
0.0
 10
-3.590618
 20
378.771460
 30
0.0
 10
-2.499838
 20
381.963400
 30
0.0
 10
-1.316768
 20
385.152430
 30
0.0
 10
1.317052
 20
385.152430
 30
0.0
 10
2.500122
 20
381.963400
 30
0.0
 10
3.590902
 20
378.771460
 30
0.0
 10
6.325702
 20
378.735660
 30
0.0
 10
7.499662
 20
381.897950
 30
0.0
 10
8.765812
 20
385.054920
 30
0.0
 10
11.398722
 20
384.986020
 30
0.0
 10
12.497912
 20
381.767110
 30
0.0
 10
13.504762
 20
378.547710
 30
0.0
 10
16.237682
 20
378.440340
 30
0.0
 10
17.494022
 20
381.570810
 30
0.0
 10
18.842372
 20
384.693550
 30
0.0
 10
21.472582
 20
384.555710
 30
0.0
 10
22.487132
 20
381.309140
 30
0.0
 10
23.409362
 20
378.064490
 30
0.0
 10
26.138542
 20
377.885610
 30
0.0
 10
27.476392
 20
380.982120
 30
0.0
 10
28.906032
 20
384.068500
 30
0.0
 10
31.531722
 20
383.861850
 30
0.0
 10
32.460942
 20
380.589830
 30
0.0
 10
33.297922
 20
377.322150
 30
0.0
 10
36.021482
 20
377.071890
 30
0.0
 10
37.439932
 20
380.132320
 30
0.0
 10
38.949872
 20
383.180220
 30
0.0
 10
41.569252
 20
382.904910
 30
0.0
 10
42.412502
 20
379.609690
 30
0.0
 10
43.163662
 20
376.321220
 30
0.0
 10
45.879732
 20
375.999750
 30
0.0
 10
47.377812
 20
379.022000
 30
0.0
 10
48.967022
 20
382.029330
 30
0.0
 10
51.578302
 20
381.685550
 30
0.0
 10
52.335002
 20
378.369380
 30
0.0
 10
52.999812
 20
375.062370
 30
0.0
 10
55.706542
 20
374.669910
 30
0.0
 10
57.283222
 20
377.651920
 30
0.0
 10
58.950612
 20
380.616610
 30
0.0
 10
61.551992
 20
380.204590
 30
0.0
 10
62.221632
 20
376.869750
 30
0.0
 10
62.799652
 20
373.546480
 30
0.0
 10
65.495182
 20
373.083300
 30
0.0
 10
67.149372
 20
376.023010
 30
0.0
 10
68.893792
 20
378.943040
 30
0.0
 10
71.483502
 20
378.463070
 30
0.0
 10
72.065612
 20
375.111840
 30
0.0
 10
72.556442
 20
371.774570
 30
0.0
 10
75.238922
 20
371.240990
 30
0.0
 10
76.969502
 20
374.136390
 30
0.0
 10
78.789762
 20
377.009760
 30
0.0
 10
81.366022
 20
376.462160
 30
0.0
 10
81.860212
 20
373.096840
 30
0.0
 10
82.263512
 20
369.747870
 30
0.0
 10
84.931102
 20
369.144260
 30
0.0
 10
86.736882
 20
371.993360
 30
0.0
 10
88.631732
 20
374.818100
 30
0.0
 10
91.192772
 20
374.203250
 30
0.0
 10
91.598702
 20
370.826150
 30
0.0
 10
91.914202
 20
367.467760
 30
0.0
 10
94.565072
 20
366.794530
 30
0.0
 10
96.444822
 20
369.595390
 30
0.0
 10
98.412962
 20
372.369550
 30
0.0
 10
100.957030
 20
371.687870
 30
0.0
 10
101.274410
 20
368.301300
 30
0.0
 10
101.501890
 20
364.935810
 30
0.0
 10
104.134240
 20
364.193410
 30
0.0
 10
106.086650
 20
366.944110
 30
0.0
 10
108.126740
 20
369.665800
 30
0.0
 10
110.652100
 20
368.917760
 30
0.0
 10
110.880720
 20
365.524040
 30
0.0
 10
111.020020
 20
362.153750
 30
0.0
 10
113.632030
 20
361.342700
 30
0.0
 10
115.655780
 20
364.041350
 30
0.0
 10
117.766420
 20
366.708700
 30
0.0
 10
120.271330
 20
365.894810
 30
0.0
 10
120.411030
 20
362.496270
 30
0.0
 10
120.462030
 20
359.123490
 30
0.0
 10
123.051920
 20
358.244340
 30
0.0
 10
125.145620
 20
360.889090
 30
0.0
 10
127.325360
 20
363.500280
 30
0.0
 10
129.808100
 20
362.621090
 30
0.0
 10
129.858800
 20
359.220060
 30
0.0
 10
129.821500
 20
355.847100
 30
0.0
 10
132.387480
 20
354.900460
 30
0.0
 10
134.549700
 20
357.489490
 30
0.0
 10
136.797040
 20
360.042730
 30
0.0
 10
139.255920
 20
359.098860
 30
0.0
 10
139.217520
 20
355.697660
 30
0.0
 10
139.091960
 20
352.326830
 30
0.0
 10
141.632280
 20
351.313350
 30
0.0
 10
143.861530
 20
353.844890
 30
0.0
 10
146.174940
 20
356.338420
 30
0.0
 10
148.608260
 20
355.330510
 30
0.0
 10
148.480900
 20
351.931490
 30
0.0
 10
148.267140
 20
348.565100
 30
0.0
 10
150.780070
 20
347.485460
 30
0.0
 10
153.074820
 20
349.957780
 30
0.0
 10
155.452710
 20
352.389900
 30
0.0
 10
157.858810
 20
351.318640
 30
0.0
 10
157.642510
 20
347.924110
 30
0.0
 10
157.340710
 20
344.564470
 30
0.0
 10
159.824510
 20
343.419430
 30
0.0
 10
162.183200
 20
345.830830
 30
0.0
 10
164.623940
 20
348.199870
 30
0.0
 10
167.001180
 20
347.065990
 30
0.0
 10
166.696090
 20
343.678290
 30
0.0
 10
166.306450
 20
340.327700
 30
0.0
 10
168.759420
 20
339.118030
 30
0.0
 10
171.180420
 20
341.466860
 30
0.0
 10
173.682340
 20
343.771200
 30
0.0
 10
176.029080
 20
342.575480
 30
0.0
 10
175.635420
 20
339.196920
 30
0.0
 10
175.158200
 20
335.857680
 30
0.0
 10
177.578670
 20
334.584210
 30
0.0
 10
180.060330
 20
336.868870
 30
0.0
 10
182.621710
 20
339.106930
 30
0.0
 10
184.936350
 20
337.850180
 30
0.0
 10
184.454380
 20
334.483090
 30
0.0
 10
183.889920
 20
331.157490
 30
0.0
 10
186.276220
 20
329.821090
 30
0.0
 10
188.816830
 20
332.040000
 30
0.0
 10
191.435920
 20
334.210250
 30
0.0
 10
193.716870
 20
332.893340
 30
0.0
 10
193.146930
 20
329.540020
 30
0.0
 10
192.495600
 20
326.230330
 30
0.0
 10
194.846110
 20
324.831930
 30
0.0
 10
197.443930
 20
326.983570
 30
0.0
 10
200.118930
 20
329.084510
 30
0.0
 10
202.364630
 20
327.708350
 30
0.0
 10
201.707100
 20
324.371100
 30
0.0
 10
200.969360
 20
321.079600
 30
0.0
 10
203.282450
 20
319.620140
 30
0.0
 10
205.935710
 20
321.703050
 30
0.0
 10
208.664790
 20
323.733240
 30
0.0
 10
210.873690
 20
322.298760
 30
0.0
 10
210.129030
 20
318.979870
 30
0.0
 10
209.305380
 20
315.708810
 30
0.0
 10
211.579480
 20
314.189300
 30
0.0
 10
214.286350
 20
316.202040
 30
0.0
 10
217.067640
 20
318.160100
 30
0.0
 10
219.238230
 20
316.668290
 30
0.0
 10
218.406950
 20
313.370030
 30
0.0
 10
217.497960
 20
310.121650
 30
0.0
 10
219.731500
 20
308.543130
 30
0.0
 10
222.490130
 20
310.484320
 30
0.0
 10
225.321720
 20
312.368910
 30
0.0
 10
227.452520
 20
310.820790
 30
0.0
 10
226.535190
 20
307.545420
 30
0.0
 10
225.541470
 20
304.321940
 30
0.0
 10
227.732930
 20
302.685510
 30
0.0
 10
230.541430
 20
304.553820
 30
0.0
 10
233.421380
 20
306.363630
 30
0.0
 10
235.510930
 20
304.760270
 30
0.0
 10
234.508170
 20
301.510030
 30
0.0
 10
233.430410
 20
298.313670
 30
0.0
 10
235.578280
 20
296.620430
 30
0.0
 10
238.434720
 20
298.414580
 30
0.0
 10
241.361070
 20
300.148390
 30
0.0
 10
243.407920
 20
298.490880
 30
0.0
 10
242.320420
 20
295.268000
 30
0.0
 10
241.159370
 20
292.100950
 30
0.0
 10
243.262170
 20
290.352070
 30
0.0
 10
246.164610
 20
292.070830
 30
0.0
 10
249.135330
 20
293.727440
 30
0.0
 10
251.138100
 20
292.016920
 30
0.0
 10
249.966610
 20
288.823610
 30
0.0
 10
248.723050
 20
285.688040
 30
0.0
 10
250.779350
 20
283.884710
 30
0.0
 10
253.725780
 20
285.526910
 30
0.0
 10
256.738850
 20
287.105190
 30
0.0
 10
258.696160
 20
285.342820
 30
0.0
 10
257.441480
 20
282.181280
 30
0.0
 10
256.116260
 20
279.079330
 30
0.0
 10
258.124660
 20
277.222790
 30
0.0
 10
261.113070
 20
278.787300
 30
0.0
 10
264.166420
 20
280.286160
 30
0.0
 10
266.076920
 20
278.473170
 30
0.0
 10
264.739910
 20
275.345550
 30
0.0
 10
263.333950
 20
272.279360
 30
0.0
 10
265.293060
 20
270.370880
 30
0.0
 10
268.321400
 20
271.856620
 30
0.0
 10
271.412940
 20
273.275050
 30
0.0
 10
273.275330
 20
271.412660
 30
0.0
 10
271.856900
 20
268.321120
 30
0.0
 10
270.371160
 20
265.292780
 30
0.0
 10
272.279640
 20
263.333670
 30
0.0
 10
275.345830
 20
264.739630
 30
0.0
 10
278.473450
 20
266.076640
 30
0.0
 10
280.286440
 20
264.166140
 30
0.0
 10
278.787580
 20
261.112790
 30
0.0
 10
277.223070
 20
258.124380
 30
0.0
 10
279.079610
 20
256.115980
 30
0.0
 10
282.181560
 20
257.441200
 30
0.0
 10
285.343100
 20
258.695880
 30
0.0
 10
287.105470
 20
256.738570
 30
0.0
 10
285.527190
 20
253.725500
 30
0.0
 10
283.884990
 20
250.779070
 30
0.0
 10
285.688320
 20
248.722770
 30
0.0
 10
288.823890
 20
249.966330
 30
0.0
 10
292.017200
 20
251.137820
 30
0.0
 10
293.727720
 20
249.135050
 30
0.0
 10
292.071110
 20
246.164330
 30
0.0
 10
290.352350
 20
243.261890
 30
0.0
 10
292.101230
 20
241.159090
 30
0.0
 10
295.268280
 20
242.320140
 30
0.0
 10
298.491160
 20
243.407640
 30
0.0
 10
300.148670
 20
241.360790
 30
0.0
 10
298.414860
 20
238.434440
 30
0.0
 10
296.620710
 20
235.578000
 30
0.0
 10
298.313950
 20
233.430130
 30
0.0
 10
301.510310
 20
234.507890
 30
0.0
 10
304.760550
 20
235.510650
 30
0.0
 10
306.363910
 20
233.421100
 30
0.0
 10
304.554100
 20
230.541150
 30
0.0
 10
302.685790
 20
227.732650
 30
0.0
 10
304.322220
 20
225.541190
 30
0.0
 10
307.545700
 20
226.534910
 30
0.0
 10
310.821070
 20
227.452240
 30
0.0
 10
312.369190
 20
225.321440
 30
0.0
 10
310.484600
 20
222.489850
 30
0.0
 10
308.543410
 20
219.731220
 30
0.0
 10
310.121930
 20
217.497680
 30
0.0
 10
313.370310
 20
218.406670
 30
0.0
 10
316.668570
 20
219.237950
 30
0.0
 10
318.160380
 20
217.067360
 30
0.0
 10
316.202320
 20
214.286070
 30
0.0
 10
314.189580
 20
211.579200
 30
0.0
 10
315.709090
 20
209.305100
 30
0.0
 10
318.980150
 20
210.128750
 30
0.0
 10
322.299040
 20
210.873410
 30
0.0
 10
323.733520
 20
208.664510
 30
0.0
 10
321.703330
 20
205.935430
 30
0.0
 10
319.620420
 20
203.282170
 30
0.0
 10
321.079880
 20
200.969080
 30
0.0
 10
324.371380
 20
201.706820
 30
0.0
 10
327.708630
 20
202.364350
 30
0.0
 10
329.084790
 20
200.118650
 30
0.0
 10
326.983850
 20
197.443650
 30
0.0
 10
324.832210
 20
194.845830
 30
0.0
 10
326.230610
 20
192.495320
 30
0.0
 10
329.540300
 20
193.146650
 30
0.0
 10
332.893620
 20
193.716590
 30
0.0
 10
334.210530
 20
191.435640
 30
0.0
 10
332.040280
 20
188.816550
 30
0.0
 10
329.821370
 20
186.275940
 30
0.0
 10
331.157770
 20
183.889640
 30
0.0
 10
334.483370
 20
184.454100
 30
0.0
 10
337.850460
 20
184.936070
 30
0.0
 10
339.107210
 20
182.621430
 30
0.0
 10
336.869150
 20
180.060050
 30
0.0
 10
334.584490
 20
177.578390
 30
0.0
 10
335.857960
 20
175.157920
 30
0.0
 10
339.197200
 20
175.635140
 30
0.0
 10
342.575760
 20
176.028800
 30
0.0
 10
343.771480
 20
173.682060
 30
0.0
 10
341.467140
 20
171.180140
 30
0.0
 10
339.118310
 20
168.759140
 30
0.0
 10
340.327980
 20
166.306170
 30
0.0
 10
343.678570
 20
166.695810
 30
0.0
 10
347.066270
 20
167.000900
 30
0.0
 10
348.200150
 20
164.623660
 30
0.0
 10
345.831110
 20
162.182920
 30
0.0
 10
343.419710
 20
159.824230
 30
0.0
 10
344.564750
 20
157.340430
 30
0.0
 10
347.924390
 20
157.642230
 30
0.0
 10
351.318920
 20
157.858530
 30
0.0
 10
352.390180
 20
155.452430
 30
0.0
 10
349.958060
 20
153.074540
 30
0.0
 10
347.485740
 20
150.779790
 30
0.0
 10
348.565380
 20
148.266860
 30
0.0
 10
351.931770
 20
148.480620
 30
0.0
 10
355.330790
 20
148.607980
 30
0.0
 10
356.338700
 20
146.174660
 30
0.0
 10
353.845170
 20
143.861250
 30
0.0
 10
351.313630
 20
141.632000
 30
0.0
 10
352.327110
 20
139.091680
 30
0.0
 10
355.697940
 20
139.217240
 30
0.0
 10
359.099140
 20
139.255640
 30
0.0
 10
360.043010
 20
136.796760
 30
0.0
 10
357.489770
 20
134.549420
 30
0.0
 10
354.900740
 20
132.387200
 30
0.0
 10
355.847380
 20
129.821220
 30
0.0
 10
359.220340
 20
129.858520
 30
0.0
 10
362.621370
 20
129.807820
 30
0.0
 10
363.500560
 20
127.325080
 30
0.0
 10
360.889370
 20
125.145340
 30
0.0
 10
358.244620
 20
123.051640
 30
0.0
 10
359.123770
 20
120.461750
 30
0.0
 10
362.496550
 20
120.410750
 30
0.0
 10
365.895090
 20
120.271050
 30
0.0
 10
366.708980
 20
117.766140
 30
0.0
 10
364.041630
 20
115.655500
 30
0.0
 10
361.342980
 20
113.631750
 30
0.0
 10
362.154030
 20
111.019740
 30
0.0
 10
365.524320
 20
110.880440
 30
0.0
 10
368.918040
 20
110.651820
 30
0.0
 10
369.666080
 20
108.126460
 30
0.0
 10
366.944390
 20
106.086370
 30
0.0
 10
364.193690
 20
104.133960
 30
0.0
 10
364.936090
 20
101.501610
 30
0.0
 10
368.301580
 20
101.274130
 30
0.0
 10
371.688150
 20
100.956750
 30
0.0
 10
372.369830
 20
98.412680
 30
0.0
 10
369.595670
 20
96.444540
 30
0.0
 10
366.794810
 20
94.564790
 30
0.0
 10
367.468040
 20
91.913920
 30
0.0
 10
370.826430
 20
91.598420
 30
0.0
 10
374.203530
 20
91.192490
 30
0.0
 10
374.818380
 20
88.631450
 30
0.0
 10
371.993640
 20
86.736600
 30
0.0
 10
369.144540
 20
84.930820
 30
0.0
 10
369.748150
 20
82.263230
 30
0.0
 10
373.097120
 20
81.859930
 30
0.0
 10
376.462440
 20
81.365740
 30
0.0
 10
377.010040
 20
78.789480
 30
0.0
 10
374.136670
 20
76.969220
 30
0.0
 10
371.241270
 20
75.238640
 30
0.0
 10
371.774850
 20
72.556160
 30
0.0
 10
375.112120
 20
72.065330
 30
0.0
 10
378.463350
 20
71.483220
 30
0.0
 10
378.943320
 20
68.893510
 30
0.0
 10
376.023290
 20
67.149090
 30
0.0
 10
373.083580
 20
65.494900
 30
0.0
 10
373.546760
 20
62.799370
 30
0.0
 10
376.870030
 20
62.221350
 30
0.0
 10
380.204870
 20
61.551710
 30
0.0
 10
380.616890
 20
58.950330
 30
0.0
 10
377.652200
 20
57.282940
 30
0.0
 10
374.670190
 20
55.706260
 30
0.0
 10
375.062650
 20
52.999530
 30
0.0
 10
378.369660
 20
52.334720
 30
0.0
 10
381.685830
 20
51.578020
 30
0.0
 10
382.029610
 20
48.966740
 30
0.0
 10
379.022280
 20
47.377530
 30
0.0
 10
376.000030
 20
45.879450
 30
0.0
 10
376.321500
 20
43.163380
 30
0.0
 10
379.609970
 20
42.412220
 30
0.0
 10
382.905190
 20
41.568970
 30
0.0
 10
383.180500
 20
38.949590
 30
0.0
 10
380.132600
 20
37.439650
 30
0.0
 10
377.072170
 20
36.021200
 30
0.0
 10
377.322430
 20
33.297640
 30
0.0
 10
380.590110
 20
32.460660
 30
0.0
 10
383.862130
 20
31.531440
 30
0.0
 10
384.068780
 20
28.905750
 30
0.0
 10
380.982400
 20
27.476110
 30
0.0
 10
377.885890
 20
26.138260
 30
0.0
 10
378.064770
 20
23.409080
 30
0.0
 10
381.309420
 20
22.486850
 30
0.0
 10
384.555990
 20
21.472300
 30
0.0
 10
384.693830
 20
18.842090
 30
0.0
 10
381.571090
 20
17.493740
 30
0.0
 10
378.440620
 20
16.237400
 30
0.0
 10
378.547990
 20
13.504480
 30
0.0
 10
381.767390
 20
12.497630
 30
0.0
 10
384.986300
 20
11.398440
 30
0.0
 10
385.055200
 20
8.765530
 30
0.0
 10
381.898230
 20
7.499380
 30
0.0
 10
378.735940
 20
6.325420
 30
0.0
  0
ENDSEC
  0
SECTION
  2
OBJECTS
  0
DICTIONARY
  5
C
330
0
100
AcDbDictionary
  3
ACAD_GROUP
350
D
  3
ACAD_MLINESTYLE
350
17
  0
DICTIONARY
  5
D
330
C
100
AcDbDictionary
  0
DICTIONARY
  5
1A
330
C
100
AcDbDictionary
  0
DICTIONARY
  5
17
330
C
100
AcDbDictionary
  3
STANDARD
350
18
  0
DICTIONARY
  5
19
330
C
100
AcDbDictionary
  0
ENDSEC
  0
EOF
