<?xml version="1.0" encoding="UTF-8" standalone="no"?>
<!-- Created with Inkscape (http://www.inkscape.org/) -->

<svg
   xmlns:dc="http://purl.org/dc/elements/1.1/"
   xmlns:cc="http://creativecommons.org/ns#"
   xmlns:rdf="http://www.w3.org/1999/02/22-rdf-syntax-ns#"
   xmlns:svg="http://www.w3.org/2000/svg"
   xmlns="http://www.w3.org/2000/svg"
   xmlns:sodipodi="http://sodipodi.sourceforge.net/DTD/sodipodi-0.dtd"
   xmlns:inkscape="http://www.inkscape.org/namespaces/inkscape"
   width="210mm"
   height="297mm"
   viewBox="0 0 210 297"
   version="1.1"
   id="svg8"
   inkscape:version="0.92.4 (5da689c313, 2019-01-14)"
   sodipodi:docname="teeth.svg">
  <defs
     id="defs2" />
  <sodipodi:namedview
     id="base"
     pagecolor="#ffffff"
     bordercolor="#666666"
     borderopacity="1.0"
     inkscape:pageopacity="0.0"
     inkscape:pageshadow="2"
     inkscape:zoom="0.35"
     inkscape:cx="1533.6462"
     inkscape:cy="-287.40312"
     inkscape:document-units="mm"
     inkscape:current-layer="layer1"
     showgrid="false"
     inkscape:window-width="3840"
     inkscape:window-height="2066"
     inkscape:window-x="-11"
     inkscape:window-y="-11"
     inkscape:window-maximized="1" />
  <metadata
     id="metadata5">
    <rdf:RDF>
      <cc:Work
         rdf:about="">
        <dc:format>image/svg+xml</dc:format>
        <dc:type
           rdf:resource="http://purl.org/dc/dcmitype/StillImage" />
        <dc:title></dc:title>
      </cc:Work>
    </rdf:RDF>
  </metadata>
  <g
     inkscape:label="Layer 1"
     inkscape:groupmode="layer"
     id="layer1">
    <path
       inkscape:connector-curvature="0"
       d="m 378.77174,293.40938 3.19194,1.09078 3.18903,1.18307 v 2.63382 l -3.18903,1.18307 -3.19194,1.09078 -0.0358,2.7348 3.16229,1.17396 3.15697,1.26615 -0.0689,2.63291 -3.21891,1.09919 -3.2194,1.00685 -0.10737,2.73292 3.13047,1.25634 3.12274,1.34835 -0.13784,2.63021 -3.24657,1.01455 -3.24465,0.92223 -0.17888,2.72918 3.09651,1.33785 3.08638,1.42964 -0.20665,2.62569 -3.27202,0.92922 -3.26768,0.83698 -0.25026,2.72356 3.06043,1.41845 3.0479,1.50994 -0.27531,2.61938 -3.29522,0.84325 -3.28847,0.75116 -0.32147,2.71607 3.02225,1.49808 3.00733,1.58921 -0.34378,2.61128 -3.31617,0.7567 -3.30701,0.66481 -0.39246,2.70673 2.98201,1.57668 2.96469,1.66739 -0.41202,2.60138 -3.33484,0.66964 -3.32327,0.57802 -0.46318,2.69553 2.93971,1.65419 2.92003,1.74442 -0.47997,2.58971 -3.35123,0.58211 -3.33727,0.49083 -0.53358,2.68248 2.8954,1.73058 2.87337,1.82026 -0.5476,2.57626 -3.36532,0.49419 -3.34897,0.4033 -0.60361,2.66759 2.8491,1.80578 2.82474,1.89485 -0.61485,2.56104 -3.3771,0.40593 -3.35839,0.3155 -0.67323,2.65087 2.80086,1.87975 2.77416,1.96814 -0.68168,2.54407 -3.38657,0.31738 -3.36549,0.22748 -0.7424,2.63235 2.7507,1.95241 2.72169,2.04009 -0.74804,2.52536 -3.39372,0.22862 -3.37029,0.1393 -0.81105,2.61201 2.69865,2.02375 2.66735,2.11064 -0.81389,2.50491 -3.39854,0.1397 -3.37278,0.051 -0.87915,2.58989 2.64475,2.0937 2.61119,2.17974 -0.87919,2.48274 -3.40103,0.0507 -3.37296,-0.0373 -0.94664,2.56598 2.58903,2.16222 2.55324,2.24734 -0.94387,2.45888 -3.4012,-0.0384 -3.37083,-0.12556 -1.01348,2.54032 2.53154,2.22925 2.49353,2.31341 -1.00791,2.43332 -3.39902,-0.12736 -3.36639,-0.21376 -1.07964,2.51293 2.47232,2.29475 2.43212,2.37789 -1.07126,2.4061 -3.39453,-0.2163 -3.35964,-0.3018 -1.14504,2.4838 2.4114,2.35869 2.36904,2.44074 -1.13388,2.37724 -3.3877,-0.30509 -3.35059,-0.38964 -1.20967,2.45297 2.34883,2.421 2.30434,2.50192 -1.19572,2.34674 -3.37856,-0.39366 -3.33924,-0.47722 -1.27347,2.42047 2.28466,2.48166 2.23806,2.56138 -1.25675,2.31464 -3.36709,-0.48197 -3.3256,-0.56446 -1.3364,2.3863 2.21891,2.54061 2.17025,2.61909 -1.31691,2.28095 -3.35332,-0.56994 -3.30969,-0.65133 -1.3984,2.35051 2.15164,2.59782 2.10094,2.675 -1.37616,2.2457 -3.33725,-0.65753 -3.2915,-0.73774 -1.45946,2.31309 2.08291,2.65326 2.03019,2.72908 -1.43448,2.2089 -3.31889,-0.74466 -3.27106,-0.82365 -1.51951,2.2741 2.01274,2.70687 1.95806,2.78129 -1.49181,2.17059 -3.29826,-0.83128 -3.24838,-0.90899 -1.57852,2.23354 1.94119,2.75863 1.88459,2.83159 -1.54812,2.1308 -3.27537,-0.91733 -3.22348,-0.99372 -1.63643,2.19146 1.86831,2.8085 1.80981,2.87995 -1.60336,2.08955 -3.25024,-1.00276 -3.19636,-1.07776 -1.69324,2.14787 1.79415,2.85644 1.73381,2.92635 -1.65751,2.04685 -3.22288,-1.0875 -3.16705,-1.16105 -1.74888,2.1028 1.71876,2.90244 1.65661,2.97072 -1.71052,2.00277 -3.19331,-1.17149 -3.13557,-1.24356 -1.80333,2.0563 1.6422,2.94643 1.57828,3.01307 -1.76237,1.95731 -3.16154,-1.25468 -3.10195,-1.32522 -1.85654,2.0084 1.56451,2.98841 1.49886,3.05335 -1.81299,1.9105 -3.12762,-1.33701 -3.06619,-1.40596 -1.90848,1.95911 1.48574,3.02834 1.41843,3.09154 -1.86239,1.86239 -3.09154,-1.41843 -3.02834,-1.48574 -1.95911,1.90848 1.40596,3.06619 1.33701,3.12762 -1.9105,1.81299 -3.05335,-1.49886 -2.98841,-1.56451 -2.0084,1.85654 1.32522,3.10195 1.25468,3.16154 -1.95731,1.76237 -3.01307,-1.57828 -2.94643,-1.6422 -2.0563,1.80333 1.24356,3.13557 1.17149,3.19331 -2.00277,1.71052 -2.97072,-1.65661 -2.90244,-1.71876 -2.1028,1.74888 1.16105,3.16705 1.0875,3.22288 -2.04685,1.65751 -2.92635,-1.73381 -2.85644,-1.79415 -2.14787,1.69324 1.07776,3.19636 1.00276,3.25024 -2.08955,1.60336 -2.87995,-1.80981 -2.8085,-1.86831 -2.19146,1.63643 0.99372,3.22348 0.91733,3.27537 -2.1308,1.54812 -2.83159,-1.88459 -2.75863,-1.94119 -2.23354,1.57852 0.90899,3.24838 0.83128,3.29826 -2.17059,1.49181 -2.78129,-1.95806 -2.70687,-2.01274 -2.2741,1.51951 0.82365,3.27106 0.74466,3.31889 -2.2089,1.43448 -2.72908,-2.03019 -2.65326,-2.08291 -2.31309,1.45946 0.73774,3.2915 0.65753,3.33725 -2.2457,1.37616 -2.675,-2.10094 -2.59782,-2.15164 -2.35051,1.3984 0.65133,3.30969 0.56994,3.35332 -2.28095,1.31691 -2.61909,-2.17025 -2.54061,-2.21891 -2.3863,1.3364 0.56446,3.3256 0.48197,3.36709 -2.31464,1.25675 -2.56138,-2.23806 -2.48166,-2.28466 -2.42047,1.27347 0.47722,3.33924 0.39366,3.37856 -2.34674,1.19572 -2.50192,-2.30434 -2.421,-2.34883 -2.45297,1.20967 0.38964,3.35059 0.30509,3.3877 -2.37724,1.13388 -2.44074,-2.36904 -2.35869,-2.4114 -2.4838,1.14504 0.3018,3.35964 0.2163,3.39453 -2.4061,1.07126 -2.37789,-2.43212 -2.29475,-2.47232 -2.51293,1.07964 0.21376,3.36639 0.12736,3.39902 -2.43332,1.00791 -2.31341,-2.49353 -2.22925,-2.53154 -2.54032,1.01348 0.12556,3.37083 0.0384,3.4012 -2.45888,0.94387 -2.24734,-2.55324 -2.16222,-2.58903 -2.56598,0.94664 0.0373,3.37296 -0.0507,3.40103 -2.48274,0.87919 -2.17974,-2.61119 -2.0937,-2.64475 -2.58989,0.87915 -0.051,3.37278 -0.1397,3.39854 -2.50491,0.81389 -2.11064,-2.66735 -2.02375,-2.69865 -2.61201,0.81105 -0.1393,3.37029 -0.22862,3.39372 -2.52536,0.74804 -2.04009,-2.72169 -1.95241,-2.7507 -2.63235,0.7424 -0.22748,3.36549 -0.31738,3.38657 -2.544068,0.68168 -1.96814,-2.77416 -1.87975,-2.80086 -2.65087,0.67323 -0.3155,3.35839 -0.40593,3.3771 -2.56104,0.61485 -1.89485,-2.82474 -1.80578,-2.8491 -2.66759,0.60361 -0.4033,3.34897 -0.49419,3.36532 -2.57626,0.5476 -1.82026,-2.87337 -1.73058,-2.8954 -2.68248,0.53358 -0.49083,3.33727 -0.58211,3.35123 -2.58971,0.47997 -1.74442,-2.92003 -1.65419,-2.93971 -2.69553,0.46318 -0.57802,3.32327 -0.66964,3.33484 -2.60138,0.41202 -1.66739,-2.96469 -1.57668,-2.98201 -2.70673,0.39246 -0.66481,3.30701 -0.7567,3.31617 -2.61128,0.34378 -1.58921,-3.00733 -1.49808,-3.02225 -2.71607,0.32147 -0.75116,3.28847 -0.84325,3.29522 -2.61938,0.27531 -1.50994,-3.0479 -1.41845,-3.06043 -2.72356,0.25026 -0.83698,3.26768 -0.92922,3.27202 -2.62569,0.20665 -1.42964,-3.08638 -1.33785,-3.09651 -2.72918,0.17888 -0.92223,3.24465 -1.01455,3.24657 -2.63021,0.13784 -1.34835,-3.12274 -1.25634,-3.13047 -2.73292,0.10737 -1.00685,3.2194 -1.09919,3.21891 -2.6329103,0.0689 -1.26615,-3.15697 -1.17396,-3.16229 -2.7348,0.0358 -1.09078,3.19194 -1.18307,3.18903 h -2.63382 l -1.18307,-3.18903 -1.09078,-3.19194 -2.7348,-0.0358 -1.17396,3.16229 -1.26615,3.15697 -2.6329097,-0.0689 -1.09919,-3.21891 -1.00685,-3.2194 -2.73292,-0.10737 -1.25634,3.13047 -1.34835,3.12274 -2.63021,-0.13784 -1.01455,-3.24657 -0.92223,-3.24465 -2.72918,-0.17888 -1.33785,3.09651 -1.42964,3.08638 -2.62569,-0.20665 -0.92922,-3.27202 -0.83698,-3.26768 -2.72356,-0.25026 -1.41845,3.06043 -1.50994,3.0479 -2.61938,-0.27531 -0.84325,-3.29522 -0.75116,-3.28847 -2.71607,-0.32147 -1.49808,3.02225 -1.58921,3.00733 -2.61128,-0.34378 -0.7567,-3.31617 -0.66481,-3.30701 -2.70673,-0.39246 -1.57668,2.98201 -1.66739,2.96469 -2.60138,-0.41202 -0.66964,-3.33484 -0.57802,-3.32327 -2.69553,-0.46318 -1.65419,2.93971 -1.74442,2.92003 -2.58971,-0.47997 -0.58211,-3.35123 -0.49083,-3.33727 -2.68248,-0.53358 -1.73058,2.8954 -1.82026,2.87337 -2.57626,-0.5476 -0.49419,-3.36532 -0.4033,-3.34897 -2.66759,-0.60361 -1.80578,2.8491 -1.89485,2.82474 -2.56104,-0.61485 -0.40593,-3.3771 -0.3155,-3.35839 -2.65087,-0.67323 -1.87975,2.80086 -1.96814,2.77416 -2.544072,-0.68168 -0.31738,-3.38657 -0.22748,-3.36549 -2.63235,-0.7424 -1.95241,2.7507 -2.04009,2.72169 -2.52536,-0.74804 -0.22862,-3.39372 -0.1393,-3.37029 -2.61201,-0.81105 -2.02375,2.69865 -2.11064,2.66735 -2.50491,-0.81389 -0.1397,-3.39854 -0.051,-3.37278 -2.58989,-0.87915 -2.0937,2.64475 -2.17974,2.61119 -2.48274,-0.87919 -0.0507,-3.40103 0.0373,-3.37296 -2.56598,-0.94664 -2.16222,2.58903 -2.24734,2.55324 -2.45888,-0.94387 0.0384,-3.4012 0.12556,-3.37083 -2.54032,-1.01348 -2.22925,2.53154 -2.31341,2.49353 -2.43332,-1.00791 0.12736,-3.39902 0.21376,-3.36639 -2.51293,-1.07964 -2.29475,2.47232 -2.37789,2.43212 -2.4061,-1.07126 0.2163,-3.39453 0.3018,-3.35964 -2.4838,-1.14504 -2.35869,2.4114 -2.44074,2.36904 -2.37724,-1.13388 0.30509,-3.3877 0.38964,-3.35059 -2.45297,-1.20967 -2.421,2.34883 -2.50192,2.30434 -2.34674,-1.19572 0.39366,-3.37856 0.47722,-3.33924 -2.42047,-1.27347 -2.48166,2.28466 -2.56138,2.23806 -2.31464,-1.25675 0.48197,-3.36709 0.56446,-3.3256 -2.3863,-1.3364 -2.54061,2.21891 -2.61909,2.17025 -2.28095,-1.31691 0.56994,-3.35332 0.65133,-3.30969 -2.35051,-1.3984 -2.59782,2.15164 -2.675,2.10094 -2.2457,-1.37616 0.65753,-3.33725 0.73774,-3.2915 -2.31309,-1.45946 -2.65326,2.08291 -2.72908,2.03019 -2.2089,-1.43448 0.74466,-3.31889 0.82365,-3.27106 -2.2741,-1.51951 -2.70687,2.01274 -2.78129,1.95806 -2.17059,-1.49181 0.83128,-3.29826 0.90899,-3.24838 -2.23354,-1.57852 -2.75863,1.94119 -2.83159,1.88459 -2.1308,-1.54812 0.91733,-3.27537 0.99372,-3.22348 -2.19146,-1.63643 -2.8085,1.86831 -2.87995,1.80981 -2.08955,-1.60336 1.00276,-3.25024 1.07776,-3.19636 -2.14787,-1.69324 -2.85644,1.79415 -2.92635,1.73381 -2.04685,-1.65751 1.0875,-3.22288 1.16105,-3.16705 -2.1028,-1.74888 -2.90244,1.71876 -2.97072,1.65661 -2.00277,-1.71052 1.17149,-3.19331 1.24356,-3.13557 -2.0563,-1.80333 -2.94643,1.6422 -3.01307,1.57828 -1.95731,-1.76237 1.25468,-3.16154 1.32522,-3.10195 -2.0084,-1.85654 -2.98841,1.56451 -3.05335,1.49886 -1.9105,-1.81299 1.33701,-3.12762 1.40596,-3.06619 -1.95911,-1.90848 -3.02834,1.48574 -3.09154,1.41843 -1.86239,-1.86239 1.41843,-3.09154 1.48574,-3.02834 -1.90848,-1.95911 -3.06619,1.40596 -3.12762,1.33701 -1.81299,-1.9105 1.49886,-3.05335 1.56451,-2.98841 -1.85654,-2.0084 -3.10195,1.32522 -3.16154,1.25468 -1.76237,-1.95731 1.57828,-3.01307 1.6422,-2.94643 -1.80333,-2.0563 -3.13557,1.24356 -3.19331,1.17149 -1.71052,-2.00277 1.65661,-2.97072 1.71876,-2.90244 -1.74888,-2.1028 -3.16705,1.16105 -3.22288,1.0875 -1.65751,-2.04685 1.73381,-2.92635 1.79415,-2.85644 -1.69324,-2.14787 -3.19636,1.07776 -3.25024,1.00276 -1.60336,-2.08955 1.80981,-2.87995 1.86831,-2.8085 -1.63643,-2.19146 -3.22348,0.99372 -3.27537,0.91733 -1.54812,-2.1308 1.88459,-2.83159 1.94119,-2.75863 -1.57852,-2.23354 -3.24838,0.90899 -3.29826,0.83128 -1.49181,-2.17059 1.95806,-2.78129 2.01274,-2.70687 -1.51951,-2.2741 -3.27106,0.82365 -3.31889,0.74466 -1.43448,-2.2089 2.03019,-2.72908 2.08291,-2.65326 -1.45946,-2.31309 -3.2915,0.73774 -3.33725,0.65753 -1.37616,-2.2457 2.10094,-2.675 2.15164,-2.59782 -1.3984,-2.35051 -3.30969,0.65133 -3.35332,0.56994 -1.31691,-2.28095 2.17025,-2.61909 2.21891,-2.54061 -1.3364,-2.3863 -3.3256,0.56446 -3.36709,0.48197 -1.25675,-2.31464 2.23806,-2.56138 2.28466,-2.48166 -1.27347,-2.42047 -3.33924,0.47722 -3.37856,0.39366 -1.19572,-2.34674 2.30434,-2.50192 2.34883,-2.421 -1.20967,-2.45297 -3.35059,0.38964 -3.3877,0.30509 -1.13388,-2.37724 2.36904,-2.44074 2.4114,-2.35869 -1.14504,-2.4838 -3.35964,0.3018 -3.39453,0.2163 -1.07126,-2.4061 2.43212,-2.37789 2.47232,-2.29475 -1.07964,-2.51293 -3.36639,0.21376 -3.39902,0.12736 -1.00791,-2.43332 2.49353,-2.31341 2.53154,-2.22925 -1.01348,-2.54032 -3.37083,0.12556 -3.4012,0.0384 -0.94387,-2.45888 2.55324,-2.24734 2.58903,-2.16222 -0.94664,-2.56598 -3.37296,0.0373 -3.40103,-0.0507 -0.87919,-2.48274 2.61119,-2.17974 2.64475,-2.0937 -0.87915,-2.58989 -3.37278,-0.051 -3.39854,-0.1397 -0.81389,-2.50491 2.66735,-2.11064 2.69865,-2.02375 -0.81105,-2.61201 -3.37029,-0.1393 -3.39372,-0.22862 -0.74804,-2.52536 2.72169,-2.04009 2.7507,-1.95241 -0.7424,-2.63235 -3.36549,-0.22748 -3.38657,-0.31738 -0.68168,-2.54407 2.77416,-1.96814 2.80086,-1.87975 -0.67323,-2.65087 -3.35839,-0.3155 -3.3771,-0.40593 -0.61485,-2.56104 2.82474,-1.89485 2.8491,-1.80578 -0.60361,-2.66759 -3.34897,-0.4033 -3.36532,-0.49419 -0.5476,-2.57626 2.87337,-1.82026 2.8954,-1.73058 -0.53358,-2.68248 -3.33727,-0.49083 -3.35123,-0.58211 -0.47997,-2.58971 2.92003,-1.74442 2.93971,-1.65419 -0.46318,-2.69553 -3.32327,-0.57802 -3.33484,-0.66964 -0.41202,-2.60138 2.96469,-1.66739 2.98201,-1.57668 -0.39246,-2.70673 -3.30701,-0.66481 -3.31617,-0.7567 -0.34378,-2.61128 3.00733,-1.58921 3.02225,-1.49808 -0.32147,-2.71607 -3.28847,-0.75116 -3.29522,-0.84325 -0.27531,-2.61938 3.0479,-1.50994 3.06043,-1.41845 -0.25026,-2.72356 -3.26768,-0.83698 -3.27202,-0.92922 -0.20665,-2.62569 3.08638,-1.42964 3.09651,-1.33785 -0.17888,-2.72918 -3.24465,-0.92223 -3.24657,-1.01455 -0.13784,-2.63021 3.12274,-1.34835 3.13047,-1.25634 -0.10737,-2.73292 -3.2194,-1.00685 -3.21891,-1.09919 -0.0689,-2.63291 3.15697,-1.26615 3.16229,-1.17396 -0.0358,-2.7348 -3.19194,-1.09078 -3.18903,-1.18307 v -2.63382 l 3.18903,-1.18307 3.19194,-1.09078 0.0358,-2.7348 -3.16229,-1.17396 -3.15697,-1.26615 0.0689,-2.63291 3.21891,-1.09919 3.2194,-1.00685 0.10737,-2.73292 -3.13047,-1.25634 -3.12274,-1.34835 0.13784,-2.63021 3.24657,-1.01455 3.24465,-0.92223 0.17888,-2.72918 -3.09651,-1.33785 -3.08638,-1.42964 0.20665,-2.62569 3.27202,-0.92922 3.26768,-0.83698 0.25026,-2.72356 -3.06043,-1.41845 -3.0479,-1.50994 0.27531,-2.61938 3.29522,-0.84325 3.28847,-0.75116 0.32147,-2.71607 -3.02225,-1.49808 -3.00733,-1.58921 0.34378,-2.61128 3.31617,-0.7567 3.30701,-0.66481 0.39246,-2.70673 -2.98201,-1.57668 -2.96469,-1.66739 0.41202,-2.60138 3.33484,-0.66964 3.32327,-0.57802 0.46318,-2.69553 -2.93971,-1.65419 -2.92003,-1.74442 0.47997,-2.58971 3.35123,-0.58211 3.33727,-0.49083 0.53358,-2.68248 -2.8954,-1.73058 -2.87337,-1.82026 0.5476,-2.57626 3.36532,-0.49419 3.34897,-0.4033 0.60361,-2.66759 -2.8491,-1.80578 -2.82474,-1.89485 0.61485,-2.56104 3.3771,-0.40593 3.35839,-0.3155 0.67323,-2.65087 -2.80086,-1.87975 -2.77416,-1.96814 0.68168,-2.54407 3.38657,-0.31738 3.36549,-0.22748 0.7424,-2.63235 -2.7507,-1.95241 -2.72169,-2.04009 0.74804,-2.52536 3.39372,-0.22862 3.37029,-0.1393 0.81105,-2.61201 -2.69865,-2.02375 -2.66735,-2.11064 0.81389,-2.50491 3.39854,-0.1397 3.37278,-0.051 0.87915,-2.58989 -2.64475,-2.0937 -2.61119,-2.17974 0.87919,-2.48274 3.40103,-0.0507 3.37296,0.0373 0.94664,-2.56598 -2.58903,-2.16222 -2.55324,-2.24734 0.94387,-2.45888 3.4012,0.0384 3.37083,0.12556 1.01348,-2.54032 -2.53154,-2.22925 -2.49353,-2.31341 1.00791,-2.43332 3.39902,0.12736 3.36639,0.21376 1.07964,-2.51293 -2.47232,-2.29475 -2.43212,-2.37789 1.07126,-2.4061 3.39453,0.2163 3.35964,0.3018 1.14504,-2.4838 -2.4114,-2.35869 -2.36904,-2.44074 1.13388,-2.37724 3.3877,0.30509 3.35059,0.38964 1.20967,-2.45297 -2.34883,-2.421 -2.30434,-2.50192 1.19572,-2.34674 3.37856,0.39366 3.33924,0.47722 1.27347,-2.42047 -2.28466,-2.48166 -2.23806,-2.56138 1.25675,-2.31464 3.36709,0.48197 3.3256,0.56446 1.3364,-2.3863 -2.21891,-2.54061 -2.17025,-2.61909 1.31691,-2.28095 3.35332,0.56994 3.30969,0.65133 1.3984,-2.35051 -2.15164,-2.59782 -2.10094,-2.675 1.37616,-2.2457 3.33725,0.65753 3.2915,0.73774 1.45946,-2.31309 -2.08291,-2.65326 -2.03019,-2.72908 1.43448,-2.2089 3.31889,0.74466 3.27106,0.82365 1.51951,-2.2741 -2.01274,-2.70687 -1.95806,-2.78129 1.49181,-2.17059 3.29826,0.83128 3.24838,0.90899 1.57852,-2.23354 -1.94119,-2.75863 -1.88459,-2.83159 1.54812,-2.1308 3.27537,0.91733 3.22348,0.99372 1.63643,-2.19146 -1.86831,-2.8085 -1.80981,-2.87995 1.60336,-2.08955 3.25024,1.00276 3.19636,1.07776 1.69324,-2.14787 -1.79415,-2.85644 -1.73381,-2.92635 1.65751,-2.04685 3.22288,1.0875 3.16705,1.16105 1.74888,-2.1028 -1.71876,-2.90244 -1.65661,-2.97072 1.71052,-2.00277 3.19331,1.17149 3.13557,1.24356 1.80333,-2.0563 -1.6422,-2.94643 -1.57828,-3.01307 1.76237,-1.95731 3.16154,1.25468 3.10195,1.32522 1.85654,-2.0084 -1.56451,-2.98841 -1.49886,-3.05335 1.81299,-1.9105 3.12762,1.33701 3.06619,1.40596 1.90848,-1.95911 -1.48574,-3.02834 -1.41843,-3.09154 1.86239,-1.86239 3.09154,1.41843 3.02834,1.48574 1.95911,-1.90848 -1.40596,-3.06619 -1.33701,-3.12762 1.9105,-1.81299 3.05335,1.49886 2.98841,1.56451 2.0084,-1.85654 -1.32522,-3.10195 -1.25468,-3.16154 1.95731,-1.76237 3.01307,1.57828 2.94643,1.6422 2.0563,-1.80333 -1.24356,-3.13557 -1.17149,-3.19331 2.00277,-1.71052 2.97072,1.65661 2.90244,1.71876 2.1028,-1.74888 -1.16105,-3.16705 -1.0875,-3.22288 2.04685,-1.65751 2.92635,1.73381 2.85644,1.79415 2.14787,-1.69324 -1.07776,-3.19636 -1.00276,-3.25024 2.08955,-1.60336 2.87995,1.80981 2.8085,1.86831 2.19146,-1.63643 -0.99372,-3.22348 -0.91733,-3.27537 2.1308,-1.54812 2.83159,1.88459 2.75863,1.94119 2.23354,-1.57852 -0.90899,-3.24838 -0.83128,-3.29826 2.17059,-1.49181 2.78129,1.95806 2.70687,2.01274 2.2741,-1.51951 -0.82365,-3.27106 -0.74466,-3.31889 2.2089,-1.43448 2.72908,2.03019 2.65326,2.08291 2.31309,-1.45946 -0.73774,-3.2915 -0.65753,-3.33725 2.2457,-1.37616 2.675,2.10094 2.59782,2.15164 2.35051,-1.3984 -0.65133,-3.30969 -0.56994,-3.35332 2.28095,-1.31691 2.61909,2.17025 2.54061,2.21891 2.3863,-1.3364 -0.56446,-3.3256 -0.48197,-3.36709 2.31464,-1.25675 2.56138,2.23806 2.48166,2.28466 2.42047,-1.27347 -0.47722,-3.33924 -0.39366,-3.37856 2.34674,-1.19572 2.50192,2.30434 2.421,2.34883 2.45297,-1.20967 -0.38964,-3.35059 -0.30509,-3.3877 2.37724,-1.13388 2.44074,2.36904 2.35869,2.4114 2.4838,-1.14504 -0.3018,-3.35964 -0.2163,-3.39453 2.4061,-1.07126 2.37789,2.43212 2.29475,2.47232 2.51293,-1.07964 -0.21376,-3.36639 -0.12736,-3.39902 2.43332,-1.00791 2.31341,2.49353 2.22925,2.53154 2.54032,-1.01348 -0.12556,-3.37083 -0.0384,-3.4012 2.45888,-0.94387 2.24734,2.55324 2.16222,2.58903 2.56598,-0.94664 -0.0373,-3.37296 0.0507,-3.40103 2.48274,-0.87919 2.17974,2.61119 2.0937,2.64475 2.58989,-0.87915 0.051,-3.37278 0.1397,-3.39854 2.50491,-0.81389 2.11064,2.66735 2.02375,2.69865 2.61201,-0.81105 0.1393,-3.37029 0.22862,-3.39372 2.52536,-0.74804 2.04009,2.72169 1.95241,2.7507 2.63235,-0.7424 0.22748,-3.36549 0.31738,-3.38657 2.544072,-0.68168 1.96814,2.77416 1.87975,2.80086 2.65087,-0.67323 0.3155,-3.35839 0.40593,-3.3771 2.56104,-0.61485 1.89485,2.82474 1.80578,2.8491 2.66759,-0.60361 0.4033,-3.34897 0.49419,-3.36532 2.57626,-0.5476 1.82026,2.87337 1.73058,2.8954 2.68248,-0.53358 0.49083,-3.33727 0.58211,-3.35123 2.58971,-0.47997 1.74442,2.92003 1.65419,2.93971 2.69553,-0.46318 0.57802,-3.32327 0.66964,-3.33484 2.60138,-0.41202 1.66739,2.96469 1.57668,2.98201 2.70673,-0.39246 0.66481,-3.30701 0.7567,-3.31617 2.61128,-0.34378 1.58921,3.00733 1.49808,3.02225 2.71607,-0.32147 0.75116,-3.28847 0.84325,-3.29522 2.61938,-0.27531 1.50994,3.0479 1.41845,3.06043 2.72356,-0.25026 0.83698,-3.26768 0.92922,-3.27202 2.62569,-0.20665 1.42964,3.08638 1.33785,3.09651 2.72918,-0.17888 0.92223,-3.24465 1.01455,-3.24657 2.63021,-0.13784 1.34835,3.12274 1.25634,3.13047 2.73292,-0.10737 1.00685,-3.2194 1.09919,-3.21891 2.6329097,-0.0689 1.26615,3.15697 1.17396,3.16229 2.7348,-0.0358 1.09078,-3.19194 1.18307,-3.18903 h 2.63382 l 1.18307,3.18903 1.09078,3.19194 2.7348,0.0358 1.17396,-3.16229 1.26615,-3.15697 2.6329103,0.0689 1.09919,3.21891 1.00685,3.2194 2.73292,0.10737 1.25634,-3.13047 1.34835,-3.12274 2.63021,0.13784 1.01455,3.24657 0.92223,3.24465 2.72918,0.17888 1.33785,-3.09651 1.42964,-3.08638 2.62569,0.20665 0.92922,3.27202 0.83698,3.26768 2.72356,0.25026 1.41845,-3.06043 1.50994,-3.0479 2.61938,0.27531 0.84325,3.29522 0.75116,3.28847 2.71607,0.32147 1.49808,-3.02225 1.58921,-3.00733 2.61128,0.34378 0.7567,3.31617 0.66481,3.30701 2.70673,0.39246 1.57668,-2.98201 1.66739,-2.96469 2.60138,0.41202 0.66964,3.33484 0.57802,3.32327 2.69553,0.46318 1.65419,-2.93971 1.74442,-2.92003 2.58971,0.47997 0.58211,3.35123 0.49083,3.33727 2.68248,0.53358 1.73058,-2.8954 1.82026,-2.87337 2.57626,0.5476 0.49419,3.36532 0.4033,3.34897 2.66759,0.60361 1.80578,-2.8491 1.89485,-2.82474 2.56104,0.61485 0.40593,3.3771 0.3155,3.35839 2.65087,0.67323 1.87975,-2.80086 1.96814,-2.77416 2.544068,0.68168 0.31738,3.38657 0.22748,3.36549 2.63235,0.7424 1.95241,-2.7507 2.04009,-2.72169 2.52536,0.74804 0.22862,3.39372 0.1393,3.37029 2.61201,0.81105 2.02375,-2.69865 2.11064,-2.66735 2.50491,0.81389 0.1397,3.39854 0.051,3.37278 2.58989,0.87915 2.0937,-2.64475 2.17974,-2.61119 2.48274,0.87919 0.0507,3.40103 -0.0373,3.37296 2.56598,0.94664 2.16222,-2.58903 2.24734,-2.55324 2.45888,0.94387 -0.0384,3.4012 -0.12556,3.37083 2.54032,1.01348 2.22925,-2.53154 2.31341,-2.49353 2.43332,1.00791 -0.12736,3.39902 -0.21376,3.36639 2.51293,1.07964 2.29475,-2.47232 2.37789,-2.43212 2.4061,1.07126 -0.2163,3.39453 -0.3018,3.35964 2.4838,1.14504 2.35869,-2.4114 2.44074,-2.36904 2.37724,1.13388 -0.30509,3.3877 -0.38964,3.35059 2.45297,1.20967 2.421,-2.34883 2.50192,-2.30434 2.34674,1.19572 -0.39366,3.37856 -0.47722,3.33924 2.42047,1.27347 2.48166,-2.28466 2.56138,-2.23806 2.31464,1.25675 -0.48197,3.36709 -0.56446,3.3256 2.3863,1.3364 2.54061,-2.21891 2.61909,-2.17025 2.28095,1.31691 -0.56994,3.35332 -0.65133,3.30969 2.35051,1.3984 2.59782,-2.15164 2.675,-2.10094 2.2457,1.37616 -0.65753,3.33725 -0.73774,3.2915 2.31309,1.45946 2.65326,-2.08291 2.72908,-2.03019 2.2089,1.43448 -0.74466,3.31889 -0.82365,3.27106 2.2741,1.51951 2.70687,-2.01274 2.78129,-1.95806 2.17059,1.49181 -0.83128,3.29826 -0.90899,3.24838 2.23354,1.57852 2.75863,-1.94119 2.83159,-1.88459 2.1308,1.54812 -0.91733,3.27537 -0.99372,3.22348 2.19146,1.63643 2.8085,-1.86831 2.87995,-1.80981 2.08955,1.60336 -1.00276,3.25024 -1.07776,3.19636 2.14787,1.69324 2.85644,-1.79415 2.92635,-1.73381 2.04685,1.65751 -1.0875,3.22288 -1.16105,3.16705 2.1028,1.74888 2.90244,-1.71876 2.97072,-1.65661 2.00277,1.71052 -1.17149,3.19331 -1.24356,3.13557 2.0563,1.80333 2.94643,-1.6422 3.01307,-1.57828 1.95731,1.76237 -1.25468,3.16154 -1.32522,3.10195 2.0084,1.85654 2.98841,-1.56451 3.05335,-1.49886 1.9105,1.81299 -1.33701,3.12762 -1.40596,3.06619 1.95911,1.90848 3.02834,-1.48574 3.09154,-1.41843 1.86239,1.86239 -1.41843,3.09154 -1.48574,3.02834 1.90848,1.95911 3.06619,-1.40596 3.12762,-1.33701 1.81299,1.9105 -1.49886,3.05335 -1.56451,2.98841 1.85654,2.0084 3.10195,-1.32522 3.16154,-1.25468 1.76237,1.95731 -1.57828,3.01307 -1.6422,2.94643 1.80333,2.0563 3.13557,-1.24356 3.19331,-1.17149 1.71052,2.00277 -1.65661,2.97072 -1.71876,2.90244 1.74888,2.1028 3.16705,-1.16105 3.22288,-1.0875 1.65751,2.04685 -1.73381,2.92635 -1.79415,2.85644 1.69324,2.14787 3.19636,-1.07776 3.25024,-1.00276 1.60336,2.08955 -1.80981,2.87995 -1.86831,2.8085 1.63643,2.19146 3.22348,-0.99372 3.27537,-0.91733 1.54812,2.1308 -1.88459,2.83159 -1.94119,2.75863 1.57852,2.23354 3.24838,-0.90899 3.29826,-0.83128 1.49181,2.17059 -1.95806,2.78129 -2.01274,2.70687 1.51951,2.2741 3.27106,-0.82365 3.31889,-0.74466 1.43448,2.2089 -2.03019,2.72908 -2.08291,2.65326 1.45946,2.31309 3.2915,-0.73774 3.33725,-0.65753 1.37616,2.2457 -2.10094,2.675 -2.15164,2.59782 1.3984,2.35051 3.30969,-0.65133 3.35332,-0.56994 1.31691,2.28095 -2.17025,2.61909 -2.21891,2.54061 1.3364,2.3863 3.3256,-0.56446 3.36709,-0.48197 1.25675,2.31464 -2.23806,2.56138 -2.28466,2.48166 1.27347,2.42047 3.33924,-0.47722 3.37856,-0.39366 1.19572,2.34674 -2.30434,2.50192 -2.34883,2.421 1.20967,2.45297 3.35059,-0.38964 3.3877,-0.30509 1.13388,2.37724 -2.36904,2.44074 -2.4114,2.35869 1.14504,2.4838 3.35964,-0.3018 3.39453,-0.2163 1.07126,2.4061 -2.43212,2.37789 -2.47232,2.29475 1.07964,2.51293 3.36639,-0.21376 3.39902,-0.12736 1.00791,2.43332 -2.49353,2.31341 -2.53154,2.22925 1.01348,2.54032 3.37083,-0.12556 3.4012,-0.0384 0.94387,2.45888 -2.55324,2.24734 -2.58903,2.16222 0.94664,2.56598 3.37296,-0.0373 3.40103,0.0507 0.87919,2.48274 -2.61119,2.17974 -2.64475,2.0937 0.87915,2.58989 3.37278,0.051 3.39854,0.1397 0.81389,2.50491 -2.66735,2.11064 -2.69865,2.02375 0.81105,2.61201 3.37029,0.1393 3.39372,0.22862 0.74804,2.52536 -2.72169,2.04009 -2.7507,1.95241 0.7424,2.63235 3.36549,0.22748 3.38657,0.31738 0.68168,2.54407 -2.77416,1.96814 -2.80086,1.87975 0.67323,2.65087 3.35839,0.3155 3.3771,0.40593 0.61485,2.56104 -2.82474,1.89485 -2.8491,1.80578 0.60361,2.66759 3.34897,0.4033 3.36532,0.49419 0.5476,2.57626 -2.87337,1.82026 -2.8954,1.73058 0.53358,2.68248 3.33727,0.49083 3.35123,0.58211 0.47997,2.58971 -2.92003,1.74442 -2.93971,1.65419 0.46318,2.69553 3.32327,0.57802 3.33484,0.66964 0.41202,2.60138 -2.96469,1.66739 -2.98201,1.57668 0.39246,2.70673 3.30701,0.66481 3.31617,0.7567 0.34378,2.61128 -3.00733,1.58921 -3.02225,1.49808 0.32147,2.71607 3.28847,0.75116 3.29522,0.84325 0.27531,2.61938 -3.0479,1.50994 -3.06043,1.41845 0.25026,2.72356 3.26768,0.83698 3.27202,0.92922 0.20665,2.62569 -3.08638,1.42964 -3.09651,1.33785 0.17888,2.72918 3.24465,0.92223 3.24657,1.01455 0.13784,2.63021 -3.12274,1.34835 -3.13047,1.25634 0.10737,2.73292 3.2194,1.00685 3.21891,1.09919 0.0689,2.63291 -3.15697,1.26615 -3.16229,1.17396 z"
       style="fill:none;stroke:#000000;stroke-width:0.26458332"
       id="path13" />
  </g>
</svg>
